<svg xmlns="http://www.w3.org/2000/svg" xmlns:xlink="http://www.w3.org/1999/xlink" width="225" version="1.1" style="font-family:&quot;Lucida Grande&quot;,&quot;Lucida Sans Unicode&quot;,Arial,Helvetica,sans-serif;font-size:12px" height="150"><desc>Created with Highstock 2.0.4-modified</desc><defs><clipPath id="highcharts-1"><rect width="125" height="205" x="0" y="0"/></clipPath></defs><rect width="225" height="150" x="0" y="0" fill="#FFF" class="highcharts-background" strokeWidth="0"/><g class="highcharts-grid" zIndex="1"><path fill="none" stroke="silver" stroke-width="1" d="M 77.5 10 L 77.5 135" opacity="1" zIndex="1"/><path fill="none" stroke="silver" stroke-width="1" d="M 146.5 10 L 146.5 135" opacity="1" zIndex="1"/><path fill="none" stroke="silver" stroke-width="1" d="M 215.5 10 L 215.5 135" opacity="1" zIndex="1"/><path fill="none" stroke="silver" stroke-width="1" d="M 9.5 10 L 9.5 135" opacity="1" zIndex="1"/></g><g class="highcharts-series-group" zIndex="3"><g width="205" height="125" class="highcharts-series" clip-path="url(#highcharts-1)" transform="translate(215,135) rotate(90) scale(-1,1) scale(1 1)" visibility="visible" zIndex=".1"><path fill="rgba(124,181,236,0.75)" d="M 123.77450980392157 68.33333333333334 L 93.13725490196079 150.33333333333331 L 62.5 177.66666666666666 L 31.862745098039213 95.66666666666666 L 1.2254901960784252 41 L 1.2254901960784252 205 L 123.77450980392157 205" zIndex="0"/><path fill="none" stroke="#7cb5ec" stroke-linecap="round" stroke-linejoin="round" stroke-width="2" d="M 123.77450980392157 68.33333333333334 L 93.13725490196079 150.33333333333331 L 62.5 177.66666666666666 L 31.862745098039213 95.66666666666666 L 1.2254901960784252 41" zIndex="1"/><path fill="none" stroke="rgba(192,192,192,0.0001)" stroke-linejoin="round" stroke-width="22" d="M 113.77450980392157 68.33333333333334 L 123.77450980392157 68.33333333333334 L 93.13725490196079 150.33333333333331 L 62.5 177.66666666666666 L 31.862745098039213 95.66666666666666 L 1.2254901960784252 41 L 11.225490196078425 41" class="highcharts-tracker" visibility="visible" zIndex="2"/></g><g width="205" height="125" class="highcharts-series" clip-path="url(#highcharts-1)" transform="translate(215,135) rotate(90) scale(-1,1) scale(1 1)" visibility="visible" zIndex=".1"><path fill="rgba(67,67,72,0.75)" d="M 123.77450980392157 205 L 93.13725490196079 109.33333333333333 L 62.5 41 L 31.862745098039213 164 L 1.2254901960784252 136.66666666666669 L 1.2254901960784252 205 L 123.77450980392157 205" zIndex="0"/><path fill="none" stroke="#434348" stroke-linecap="round" stroke-linejoin="round" stroke-width="2" d="M 123.77450980392157 205 L 93.13725490196079 109.33333333333333 L 62.5 41 L 31.862745098039213 164 L 1.2254901960784252 136.66666666666669" zIndex="1"/><path fill="none" stroke="rgba(192,192,192,0.0001)" stroke-linejoin="round" stroke-width="22" d="M 113.77450980392157 205 L 123.77450980392157 205 L 93.13725490196079 109.33333333333333 L 62.5 41 L 31.862745098039213 164 L 1.2254901960784252 136.66666666666669 L 11.225490196078425 136.66666666666669" class="highcharts-tracker" visibility="visible" zIndex="2"/></g></g><g class="highcharts-data-labels" opacity="1" visibility="visible" zIndex="6"><g zIndex="1" style="cursor:default"><text x="3" zIndex="1" style="font-size:11px;color:#606060;fill:#606060" y="15" transform="translate(10,10) scale(1 1) translate(127,1)">50</text></g><g zIndex="1" style="cursor:default"><text x="3" zIndex="1" style="font-size:11px;color:#606060;fill:#606060" y="15" transform="translate(10,10) scale(1 1) translate(45,12)">20</text></g><g zIndex="1" style="cursor:default"><text x="3" zIndex="1" style="font-size:11px;color:#606060;fill:#606060" y="15" transform="translate(10,10) scale(1 1) translate(18,43)">10</text></g><g zIndex="1" style="cursor:default"><text x="3" zIndex="1" style="font-size:11px;color:#606060;fill:#606060" y="15" transform="translate(10,10) scale(1 1) translate(100,73)">40</text></g><g zIndex="1" style="cursor:default"><text x="3" zIndex="1" style="font-size:11px;color:#606060;fill:#606060" y="15" transform="translate(10,10) scale(1 1) translate(155,104)">60</text></g></g><g class="highcharts-data-labels" opacity="1" visibility="visible" zIndex="6"><g zIndex="1" style="cursor:default"><text x="3" zIndex="1" style="font-size:11px;color:#606060;fill:#606060" y="15" transform="translate(10,10) scale(1 1) translate(0,1)">0</text></g><g zIndex="1" style="cursor:default"><text x="3" zIndex="1" style="font-size:11px;color:#606060;fill:#606060" y="15" transform="translate(10,10) scale(1 1) translate(86,12)">35</text></g><g zIndex="1" style="cursor:default"><text x="3" zIndex="1" style="font-size:11px;color:#606060;fill:#606060" y="15" transform="translate(10,10) scale(1 1) translate(155,43)">60</text></g><g zIndex="1" style="cursor:default"><text x="3" zIndex="1" style="font-size:11px;color:#606060;fill:#606060" y="15" transform="translate(10,10) scale(1 1) translate(32,73)">15</text></g><g zIndex="1" style="cursor:default"><text x="3" zIndex="1" style="font-size:11px;color:#606060;fill:#606060" y="15" transform="translate(10,10) scale(1 1) translate(59,104)">25</text></g></g><g class="highcharts-tooltip" zIndex="8" style="cursor:default;padding:0;white-space:nowrap"><path fill="none" stroke="#000" stroke-width="5" d="M 3 0 L 13 0 C 16 0 16 0 16 3 L 16 13 C 16 16 16 16 13 16 L 3 16 C 0 16 0 16 0 13 L 0 3 C 0 0 0 0 3 0" isShadow="true" opacity=".05" transform="translate(0,-9999) translate(1, 1)"/><path fill="none" stroke="#000" stroke-width="3" d="M 3 0 L 13 0 C 16 0 16 0 16 3 L 16 13 C 16 16 16 16 13 16 L 3 16 C 0 16 0 16 0 13 L 0 3 C 0 0 0 0 3 0" isShadow="true" opacity=".1" transform="translate(0,-9999) translate(1, 1)"/><path fill="none" stroke="#000" stroke-width="1" d="M 3 0 L 13 0 C 16 0 16 0 16 3 L 16 13 C 16 16 16 16 13 16 L 3 16 C 0 16 0 16 0 13 L 0 3 C 0 0 0 0 3 0" isShadow="true" opacity=".15" transform="translate(0,-9999) translate(1, 1)"/><path fill="rgba(249, 249, 249, .85)" d="M 3 0 L 13 0 C 16 0 16 0 16 3 L 16 13 C 16 16 16 16 13 16 L 3 16 C 0 16 0 16 0 13 L 0 3 C 0 0 0 0 3 0" transform="translate(0,-9999)"/></g></svg>