<svg xmlns="http://www.w3.org/2000/svg" xmlns:xlink="http://www.w3.org/1999/xlink" width="225" version="1.1" style="font-family:&quot;Lucida Grande&quot;,&quot;Lucida Sans Unicode&quot;,Arial,Helvetica,sans-serif;font-size:12px" height="150"><desc>Created with Highstock 2.0.4-modified</desc><defs><clipPath id="highcharts-1"><rect width="205" height="125" x="0" y="0"/></clipPath></defs><rect width="225" height="150" x="0" y="0" fill="#FFF" class="highcharts-background" strokeWidth="0"/><g class="highcharts-grid" zIndex="1"><path fill="none" stroke="silver" stroke-width="1" d="M 10 9.5 L 215 9.5" opacity="1" zIndex="1"/><path fill="none" stroke="silver" stroke-width="1" d="M 10 52.5 L 215 52.5" opacity="1" zIndex="1"/><path fill="none" stroke="silver" stroke-width="1" d="M 10 93.5 L 215 93.5" opacity="1" zIndex="1"/><path fill="none" stroke="silver" stroke-width="1" d="M 10 135.5 L 215 135.5" opacity="1" zIndex="1"/></g><g class="highcharts-series-group" zIndex="3"><g class="highcharts-series highcharts-tracker" clip-path="url(#highcharts-1)" transform="translate(10,10) scale(1 1)" visibility="visible" zIndex=".1"><rect width="33" height="37" x="18.5" y="63.5" fill="#7cb5ec" stroke="#FFF" stroke-width="1" rx="0" ry="0"/><rect width="33" height="34" x="85.5" y="33.5" fill="#7cb5ec" stroke="#FFF" stroke-width="1" rx="0" ry="0"/><rect width="33" height="16" x="153.5" y="42.5" fill="#7cb5ec" stroke="#FFF" stroke-width="1" rx="0" ry="0"/></g><g class="highcharts-series highcharts-tracker" clip-path="url(#highcharts-1)" transform="translate(10,10) scale(1 1)" visibility="visible" zIndex=".1"><rect width="33" height="25" x="18.5" y="100.5" fill="#434348" stroke="#FFF" stroke-width="1" rx="0" ry="0"/><rect width="33" height="58" x="85.5" y="67.5" fill="#434348" stroke="#FFF" stroke-width="1" rx="0" ry="0"/><rect width="33" height="67" x="153.5" y="58.5" fill="#434348" stroke="#FFF" stroke-width="1" rx="0" ry="0"/></g></g><g class="highcharts-data-labels highcharts-tracker" opacity="1" visibility="visible" zIndex="6"><g zIndex="1" style="cursor:default"><text x="3" zIndex="1" style="font-size:11px;color:#fff;fill:#fff" y="15" transform="translate(10,10) scale(1 1) translate(25,72)">22</text></g><g zIndex="1" style="cursor:default"><text x="3" zIndex="1" style="font-size:11px;color:#fff;fill:#fff" y="15" transform="translate(10,10) scale(1 1) translate(92,41)">20</text></g><g zIndex="1" style="cursor:default"><text x="3" zIndex="1" style="font-size:11px;color:#fff;fill:#fff" y="15" transform="translate(10,10) scale(1 1) translate(160,41)">10</text></g></g><g class="highcharts-data-labels highcharts-tracker" opacity="1" visibility="visible" zIndex="6"><g zIndex="1" style="cursor:default"><text x="3" zIndex="1" style="font-size:11px;color:#fff;fill:#fff" y="15" transform="translate(10,10) scale(1 1) translate(25,103)">15</text></g><g zIndex="1" style="cursor:default"><text x="3" zIndex="1" style="font-size:11px;color:#fff;fill:#fff" y="15" transform="translate(10,10) scale(1 1) translate(92,87)">35</text></g><g zIndex="1" style="cursor:default"><text x="3" zIndex="1" style="font-size:11px;color:#fff;fill:#fff" y="15" transform="translate(10,10) scale(1 1) translate(160,82)">40</text></g></g><g class="highcharts-tooltip" zIndex="8" style="cursor:default;padding:0;white-space:nowrap"><path fill="none" stroke="#000" stroke-width="5" d="M 3 0 L 13 0 C 16 0 16 0 16 3 L 16 13 C 16 16 16 16 13 16 L 3 16 C 0 16 0 16 0 13 L 0 3 C 0 0 0 0 3 0" isShadow="true" opacity=".05" transform="translate(0,-9999) translate(1, 1)"/><path fill="none" stroke="#000" stroke-width="3" d="M 3 0 L 13 0 C 16 0 16 0 16 3 L 16 13 C 16 16 16 16 13 16 L 3 16 C 0 16 0 16 0 13 L 0 3 C 0 0 0 0 3 0" isShadow="true" opacity=".1" transform="translate(0,-9999) translate(1, 1)"/><path fill="none" stroke="#000" stroke-width="1" d="M 3 0 L 13 0 C 16 0 16 0 16 3 L 16 13 C 16 16 16 16 13 16 L 3 16 C 0 16 0 16 0 13 L 0 3 C 0 0 0 0 3 0" isShadow="true" opacity=".15" transform="translate(0,-9999) translate(1, 1)"/><path fill="rgba(249, 249, 249, .85)" d="M 3 0 L 13 0 C 16 0 16 0 16 3 L 16 13 C 16 16 16 16 13 16 L 3 16 C 0 16 0 16 0 13 L 0 3 C 0 0 0 0 3 0" transform="translate(0,-9999)"/></g></svg>