<svg xmlns="http://www.w3.org/2000/svg" xmlns:xlink="http://www.w3.org/1999/xlink" width="150" version="1.1" style="font-family:&quot;Lucida Grande&quot;,&quot;Lucida Sans Unicode&quot;,Arial,Helvetica,sans-serif;font-size:12px" height="100"><desc>Created with Highstock 2.0.4-modified</desc><defs><clipPath id="highcharts-1"><rect width="130" height="90" x="0" y="0"/></clipPath></defs><rect width="150" height="100" x="0" y="0" fill="#FFF" class="highcharts-background" strokeWidth="0"/><g class="highcharts-grid" zIndex="1"><path fill="none" stroke="silver" stroke-width="1" d="M 75 50 L 97.4827859001871 80.94490003484174" opacity="1" zIndex="1"/><path fill="none" stroke="silver" stroke-width="1" d="M 75 50 L 38.62208825171037 38.18009996515826" opacity="1" zIndex="1"/><path fill="none" stroke="silver" stroke-width="1" d="M 75 50 L 75 11.75" opacity="1" zIndex="1"/></g><g class="highcharts-grid" zIndex="1"><path fill="none" stroke="silver" stroke-width="1" d="M 75 11.75 A 38.25 38.25 0 1 1 74.96175000637498 11.750019124998403 M 75 50 A 0 0 0 1 0 75 50" opacity="1" zIndex="1"/><path fill="none" stroke="silver" stroke-width="1" d="M 75 24.5 A 25.5 25.5 0 1 1 74.97450000424999 24.500012749998938 M 75 50 A 0 0 0 1 0 75 50" opacity="1" zIndex="1"/><path fill="none" stroke="silver" stroke-width="1" d="M 75 37.25 A 12.75 12.75 0 1 1 74.987250002125 37.25000637499947 M 75 50 A 0 0 0 1 0 75 50" opacity="1" zIndex="1"/><path fill="none" stroke="silver" stroke-width="1" zIndex="1"/></g><g class="highcharts-series-group" zIndex="3"><g class="highcharts-series" clip-path="url(#highcharts-1)" transform="translate(10,5) scale(1 1)" visibility="visible" zIndex=".1"><path fill="none" stroke="#7cb5ec" stroke-linecap="round" stroke-linejoin="round" stroke-width="2" d="M 65 28.424999999999997 L 81.9763588158685 39.48404665040719 L 73.99311436007484 57.3779600139367 L 51.510328459887745 63.56694002090504 L 38.322864717920936 36.33207330778273 L 65 28.424999999999997" zIndex="1"/><path fill="none" stroke="rgba(192,192,192,0.0001)" stroke-linejoin="round" stroke-width="22" d="M 55 28.424999999999997 L 65 28.424999999999997 L 81.9763588158685 39.48404665040719 L 73.99311436007484 57.3779600139367 L 51.510328459887745 63.56694002090504 L 38.322864717920936 36.33207330778273 L 65 28.424999999999997 L 75 28.424999999999997" class="highcharts-tracker" visibility="visible" zIndex="2"/></g><g class="highcharts-series" clip-path="url(#highcharts-1)" transform="translate(10,5) scale(1 1)" visibility="visible" zIndex=".1"><path fill="none" stroke="#434348" stroke-linecap="round" stroke-linejoin="round" stroke-width="2" d="M 65 36.075 L 85.61414999069746 38.30205664692301 L 78.48967154011225 63.56694002090504 L 55.25745944325226 58.40945668176475 L 46.81104412585519 39.09004998257913 L 65 36.075" zIndex="1"/><path fill="none" stroke="rgba(192,192,192,0.0001)" stroke-linejoin="round" stroke-width="22" d="M 55 36.075 L 65 36.075 L 85.61414999069746 38.30205664692301 L 78.48967154011225 63.56694002090504 L 55.25745944325226 58.40945668176475 L 46.81104412585519 39.09004998257913 L 65 36.075 L 75 36.075" class="highcharts-tracker" visibility="visible" zIndex="2"/></g></g><g class="highcharts-tooltip" zIndex="8" style="cursor:default;padding:0;white-space:nowrap"><path fill="none" stroke="#000" stroke-width="5" d="M 3 0 L 13 0 C 16 0 16 0 16 3 L 16 13 C 16 16 16 16 13 16 L 3 16 C 0 16 0 16 0 13 L 0 3 C 0 0 0 0 3 0" isShadow="true" opacity=".05" transform="translate(0,-9999) translate(1, 1)"/><path fill="none" stroke="#000" stroke-width="3" d="M 3 0 L 13 0 C 16 0 16 0 16 3 L 16 13 C 16 16 16 16 13 16 L 3 16 C 0 16 0 16 0 13 L 0 3 C 0 0 0 0 3 0" isShadow="true" opacity=".1" transform="translate(0,-9999) translate(1, 1)"/><path fill="none" stroke="#000" stroke-width="1" d="M 3 0 L 13 0 C 16 0 16 0 16 3 L 16 13 C 16 16 16 16 13 16 L 3 16 C 0 16 0 16 0 13 L 0 3 C 0 0 0 0 3 0" isShadow="true" opacity=".15" transform="translate(0,-9999) translate(1, 1)"/><path fill="rgba(249, 249, 249, .85)" d="M 3 0 L 13 0 C 16 0 16 0 16 3 L 16 13 C 16 16 16 16 13 16 L 3 16 C 0 16 0 16 0 13 L 0 3 C 0 0 0 0 3 0" transform="translate(0,-9999)"/></g></svg>