<svg xmlns="http://www.w3.org/2000/svg" xmlns:xlink="http://www.w3.org/1999/xlink" width="225" version="1.1" style="font-family:&quot;Lucida Grande&quot;,&quot;Lucida Sans Unicode&quot;,Arial,Helvetica,sans-serif;font-size:12px" height="150"><desc>Created with Highstock 2.0.4-modified</desc><defs><clipPath id="highcharts-1"><rect width="205" height="125" x="0" y="0"/></clipPath></defs><rect width="225" height="150" x="0" y="0" fill="#FFF" class="highcharts-background" strokeWidth="0"/><g class="highcharts-grid" zIndex="1"><path fill="none" stroke="silver" stroke-width="1" d="M 10 9.5 L 215 9.5" opacity="1" zIndex="1"/><path fill="none" stroke="silver" stroke-width="1" d="M 10 52.5 L 215 52.5" opacity="1" zIndex="1"/><path fill="none" stroke="silver" stroke-width="1" d="M 10 93.5 L 215 93.5" opacity="1" zIndex="1"/><path fill="none" stroke="silver" stroke-width="1" d="M 10 135.5 L 215 135.5" opacity="1" zIndex="1"/></g><g class="highcharts-series-group" zIndex="3"><g class="highcharts-series" clip-path="url(#highcharts-1)" transform="translate(10,10) scale(1 1)" visibility="visible" zIndex=".1"><path fill="none" stroke="#7cb5ec" stroke-linecap="round" stroke-linejoin="round" stroke-width="2" d="M 2.0098039215686274 100 L 52.25490196078431 100 52.25490196078431 91.66666666666666 L 102.5 91.66666666666666 102.5 108.33333333333333 L 152.7450980392157 108.33333333333333 152.7450980392157 91.66666666666666 L 202.99019607843135 91.66666666666666 202.99019607843135 75" zIndex="1"/><path fill="none" stroke="rgba(192,192,192,0.0001)" stroke-linejoin="round" stroke-width="22" d="M -7.990196078431373 100 L 2.0098039215686274 100 L 52.25490196078431 100 52.25490196078431 91.66666666666666 L 102.5 91.66666666666666 102.5 108.33333333333333 L 152.7450980392157 108.33333333333333 152.7450980392157 91.66666666666666 L 202.99019607843135 91.66666666666666 202.99019607843135 75 L 212.99019607843135 75" class="highcharts-tracker" visibility="visible" zIndex="2"/></g><g class="highcharts-series" clip-path="url(#highcharts-1)" transform="translate(10,10) scale(1 1)" visibility="visible" zIndex=".1"><path fill="none" stroke="#434348" stroke-linecap="round" stroke-linejoin="round" stroke-width="2" d="M 2.0098039215686274 58.33333333333333 L 52.25490196078431 58.33333333333333 52.25490196078431 33.33333333333333 L 102.5 33.33333333333333 102.5 58.33333333333333 L 152.7450980392157 58.33333333333333 152.7450980392157 33.33333333333333 L 202.99019607843135 33.33333333333333 202.99019607843135 16.666666666666657" zIndex="1"/><path fill="none" stroke="rgba(192,192,192,0.0001)" stroke-linejoin="round" stroke-width="22" d="M -7.990196078431373 58.33333333333333 L 2.0098039215686274 58.33333333333333 L 52.25490196078431 58.33333333333333 52.25490196078431 33.33333333333333 L 102.5 33.33333333333333 102.5 58.33333333333333 L 152.7450980392157 58.33333333333333 152.7450980392157 33.33333333333333 L 202.99019607843135 33.33333333333333 202.99019607843135 16.666666666666657 L 212.99019607843135 16.666666666666657" class="highcharts-tracker" visibility="visible" zIndex="2"/></g></g><g class="highcharts-tooltip" zIndex="8" style="cursor:default;padding:0;white-space:nowrap"><path fill="none" stroke="#000" stroke-width="5" d="M 3 0 L 13 0 C 16 0 16 0 16 3 L 16 13 C 16 16 16 16 13 16 L 3 16 C 0 16 0 16 0 13 L 0 3 C 0 0 0 0 3 0" isShadow="true" opacity=".05" transform="translate(0,-9999) translate(1, 1)"/><path fill="none" stroke="#000" stroke-width="3" d="M 3 0 L 13 0 C 16 0 16 0 16 3 L 16 13 C 16 16 16 16 13 16 L 3 16 C 0 16 0 16 0 13 L 0 3 C 0 0 0 0 3 0" isShadow="true" opacity=".1" transform="translate(0,-9999) translate(1, 1)"/><path fill="none" stroke="#000" stroke-width="1" d="M 3 0 L 13 0 C 16 0 16 0 16 3 L 16 13 C 16 16 16 16 13 16 L 3 16 C 0 16 0 16 0 13 L 0 3 C 0 0 0 0 3 0" isShadow="true" opacity=".15" transform="translate(0,-9999) translate(1, 1)"/><path fill="rgba(249, 249, 249, .85)" d="M 3 0 L 13 0 C 16 0 16 0 16 3 L 16 13 C 16 16 16 16 13 16 L 3 16 C 0 16 0 16 0 13 L 0 3 C 0 0 0 0 3 0" transform="translate(0,-9999)"/></g></svg>