<svg xmlns="http://www.w3.org/2000/svg" xmlns:xlink="http://www.w3.org/1999/xlink" width="300" version="1.1" style="font-family:&quot;Lucida Grande&quot;,&quot;Lucida Sans Unicode&quot;,Arial,Helvetica,sans-serif;font-size:12px" height="200"><desc>Created with Highstock 2.0.4-modified</desc><defs><clipPath id="highcharts-1"><rect width="180" height="175" x="0" y="0"/></clipPath></defs><rect width="300" height="200" x="0" y="0" fill="#FFF" class="highcharts-background" strokeWidth="0"/><g class="highcharts-series-group" zIndex="3"><g class="highcharts-series highcharts-tracker" visibility="visible" zIndex=".1" style="cursor:pointer"><path fill="#7cb5ec" stroke="#FFF" stroke-linejoin="round" stroke-width="1" d="M 89.98421532671362 10.500001607457506 A 77.5 77.5 0 0 1 156.67081876879357 48.487319444276075 L 90 88 A 0 0 0 0 0 90 88 Z" transform="translate(10,10) scale(1 1) translate(0,0)"/><path fill="#434348" stroke="#FFF" stroke-linejoin="round" stroke-width="1" d="M 156.71029810735723 48.554010008271696 A 77.5 77.5 0 0 1 164.24170192653486 65.76444974704813 L 90 88 A 0 0 0 0 0 90 88 Z" transform="translate(10,10) scale(1 1) translate(0,0)"/><path fill="#90ed7d" stroke="#FFF" stroke-linejoin="round" stroke-width="1" d="M 164.26390035223403 65.83870255437525 A 77.5 77.5 0 0 1 167.2821334036961 93.80705231363753 L 90 88 A 0 0 0 0 0 90 88 Z" transform="translate(10,10) scale(1 1) translate(0,0)"/><path fill="#f7a35c" stroke="#FFF" stroke-linejoin="round" stroke-width="1" d="M 167.27628771128678 93.88433153063495 A 77.5 77.5 0 0 1 120.02254527572796 159.44856034355672 L 90 88 A 0 0 0 0 0 90 88 Z" transform="translate(10,10) scale(1 1) translate(0,0)"/><path fill="#8085e9" stroke="#FFF" stroke-linejoin="round" stroke-width="1" d="M 119.95108171602112 159.47854715955148 A 77.5 77.5 0 1 1 89.89235405479945 10.5000747590652 L 90 88 A 0 0 0 1 0 90 88 Z" transform="translate(10,10) scale(1 1) translate(0,0)"/></g></g><g class="highcharts-legend" zIndex="7"><g zIndex="1"><g><g class="highcharts-legend-item" transform="translate(210,59) translate(8,3)" zIndex="1"><text x="21" style="color:#333;font-size:12px;font-weight:700;cursor:pointer;fill:#333" y="15" text-anchor="start" zIndex="2">Firefox</text><rect width="16" height="12" x="0" y="4" fill="#7cb5ec" zIndex="3"/></g><g class="highcharts-legend-item" transform="translate(210,59) translate(8,18)" zIndex="1"><text x="21" y="15" style="color:#333;font-size:12px;font-weight:700;cursor:pointer;fill:#333" text-anchor="start" zIndex="2">Opera</text><rect width="16" height="12" x="0" y="4" fill="#434348" zIndex="3"/></g><g class="highcharts-legend-item" transform="translate(210,59) translate(8,33)" zIndex="1"><text x="21" y="15" style="color:#333;font-size:12px;font-weight:700;cursor:pointer;fill:#333" text-anchor="start" zIndex="2">Safari</text><rect width="16" height="12" x="0" y="4" fill="#90ed7d" zIndex="3"/></g><g class="highcharts-legend-item" transform="translate(210,59) translate(8,48)" zIndex="1"><text x="21" y="15" style="color:#333;font-size:12px;font-weight:700;cursor:pointer;fill:#333" text-anchor="start" zIndex="2">Chrome</text><rect width="16" height="12" x="0" y="4" fill="#f7a35c" zIndex="3"/></g><g class="highcharts-legend-item" transform="translate(210,59) translate(8,63)" zIndex="1"><text x="21" y="15" style="color:#333;font-size:12px;font-weight:700;cursor:pointer;fill:#333" text-anchor="start" zIndex="2">IE</text><rect width="16" height="12" x="0" y="4" fill="#8085e9" zIndex="3"/></g></g></g></g><g class="highcharts-tooltip" zIndex="8" style="cursor:default;padding:0;white-space:nowrap"><path fill="none" stroke="#000" stroke-width="5" d="M 3 0 L 13 0 C 16 0 16 0 16 3 L 16 13 C 16 16 16 16 13 16 L 3 16 C 0 16 0 16 0 13 L 0 3 C 0 0 0 0 3 0" isShadow="true" opacity=".05" transform="translate(0,-9999) translate(1, 1)"/><path fill="none" stroke="#000" stroke-width="3" d="M 3 0 L 13 0 C 16 0 16 0 16 3 L 16 13 C 16 16 16 16 13 16 L 3 16 C 0 16 0 16 0 13 L 0 3 C 0 0 0 0 3 0" isShadow="true" opacity=".1" transform="translate(0,-9999) translate(1, 1)"/><path fill="none" stroke="#000" stroke-width="1" d="M 3 0 L 13 0 C 16 0 16 0 16 3 L 16 13 C 16 16 16 16 13 16 L 3 16 C 0 16 0 16 0 13 L 0 3 C 0 0 0 0 3 0" isShadow="true" opacity=".15" transform="translate(0,-9999) translate(1, 1)"/><path fill="rgba(249, 249, 249, .85)" d="M 3 0 L 13 0 C 16 0 16 0 16 3 L 16 13 C 16 16 16 16 13 16 L 3 16 C 0 16 0 16 0 13 L 0 3 C 0 0 0 0 3 0" transform="translate(0,-9999)"/></g></svg>