<svg xmlns="http://www.w3.org/2000/svg" xmlns:xlink="http://www.w3.org/1999/xlink" width="225" version="1.1" style="font-family:&quot;Lucida Grande&quot;,&quot;Lucida Sans Unicode&quot;,Arial,Helvetica,sans-serif;font-size:12px" height="150"><desc>Created with Highstock 2.0.4-modified</desc><defs><clipPath id="highcharts-1"><rect width="205" height="125" x="0" y="0"/></clipPath></defs><rect width="225" height="150" x="0" y="0" fill="#FFF" class="highcharts-background" strokeWidth="0"/><g class="highcharts-grid" zIndex="1"><path fill="none" stroke="silver" stroke-width="1" d="M 10 9.5 L 215 9.5" opacity="1" zIndex="1"/><path fill="none" stroke="silver" stroke-width="1" d="M 10 52.5 L 215 52.5" opacity="1" zIndex="1"/><path fill="none" stroke="silver" stroke-width="1" d="M 10 93.5 L 215 93.5" opacity="1" zIndex="1"/><path fill="none" stroke="silver" stroke-width="1" d="M 10 135.5 L 215 135.5" opacity="1" zIndex="1"/></g><g class="highcharts-series-group" zIndex="3"><g class="highcharts-series" clip-path="url(#highcharts-1)" transform="translate(10,10) scale(1 1)" visibility="visible" zIndex=".1"><path fill="rgba(0,0,0,0.75)" d="M 2.0098039215686274 41.66666666666666 L 52.25490196078431 91.66666666666666 L 102.5 108.33333333333333 L 152.7450980392157 58.33333333333333 L 202.99019607843135 25 L 202.99019607843135 125 L 2.0098039215686274 125" zIndex="0"/><path fill="none" stroke="rgba(0, 0, 0, 0.08)" stroke-linecap="round" stroke-linejoin="round" stroke-width="2" d="M 2.0098039215686274 41.66666666666666 L 52.25490196078431 91.66666666666666 L 102.5 108.33333333333333 L 152.7450980392157 58.33333333333333 L 202.99019607843135 25" zIndex="1"/><path fill="none" stroke="rgba(192,192,192,0.0001)" stroke-linejoin="round" stroke-width="22" d="M -7.990196078431373 41.66666666666666 L 2.0098039215686274 41.66666666666666 L 52.25490196078431 91.66666666666666 L 102.5 108.33333333333333 L 152.7450980392157 58.33333333333333 L 202.99019607843135 25 L 212.99019607843135 25" class="highcharts-tracker" visibility="visible" zIndex="2"/></g><g class="highcharts-series" clip-path="url(#highcharts-1)" transform="translate(10,10) scale(1 1)" visibility="visible" zIndex=".1"><path fill="rgba(124,181,236,0.75)" d="M 2.0098039215686274 125 L 52.25490196078431 66.66666666666666 L 102.5 25 L 152.7450980392157 100 L 202.99019607843135 83.33333333333333 L 202.99019607843135 125 L 2.0098039215686274 125" zIndex="0"/><path fill="none" stroke="#7cb5ec" stroke-linecap="round" stroke-linejoin="round" stroke-width="2" d="M 2.0098039215686274 125 L 52.25490196078431 66.66666666666666 L 102.5 25 L 152.7450980392157 100 L 202.99019607843135 83.33333333333333" zIndex="1"/><path fill="none" stroke="rgba(192,192,192,0.0001)" stroke-linejoin="round" stroke-width="22" d="M -7.990196078431373 125 L 2.0098039215686274 125 L 52.25490196078431 66.66666666666666 L 102.5 25 L 152.7450980392157 100 L 202.99019607843135 83.33333333333333 L 212.99019607843135 83.33333333333333" class="highcharts-tracker" visibility="visible" zIndex="2"/></g></g><g class="highcharts-data-labels" opacity="1" visibility="visible" zIndex="6"><g zIndex="1" style="cursor:default"><text x="3" zIndex="1" style="font-size:11px;color:#606060;fill:#606060" y="15" transform="translate(10,10) scale(1 1) translate(0,22)">50</text></g><g zIndex="1" style="cursor:default"><text x="3" zIndex="1" style="font-size:11px;color:#606060;fill:#606060" y="15" transform="translate(10,10) scale(1 1) translate(43,72)">20</text></g><g zIndex="1" style="cursor:default"><text x="3" zIndex="1" style="font-size:11px;color:#606060;fill:#606060" y="15" transform="translate(10,10) scale(1 1) translate(93,88)">10</text></g><g zIndex="1" style="cursor:default"><text x="3" zIndex="1" style="font-size:11px;color:#606060;fill:#606060" y="15" transform="translate(10,10) scale(1 1) translate(143,38)">40</text></g><g zIndex="1" style="cursor:default"><text x="3" zIndex="1" style="font-size:11px;color:#606060;fill:#606060" y="15" transform="translate(10,10) scale(1 1) translate(186,5)">60</text></g></g><g class="highcharts-data-labels" opacity="1" visibility="visible" zIndex="6"><g zIndex="1" style="cursor:default"><text x="3" zIndex="1" style="font-size:11px;color:#606060;fill:#606060" y="15" transform="translate(10,10) scale(1 1) translate(0,105)">0</text></g><g zIndex="1" style="cursor:default"><text x="3" zIndex="1" style="font-size:11px;color:#606060;fill:#606060" y="15" transform="translate(10,10) scale(1 1) translate(43,47)">35</text></g><g zIndex="1" style="cursor:default"><text x="3" zIndex="1" style="font-size:11px;color:#606060;fill:#606060" y="15" transform="translate(10,10) scale(1 1) translate(93,5)">60</text></g><g zIndex="1" style="cursor:default"><text x="3" zIndex="1" style="font-size:11px;color:#606060;fill:#606060" y="15" transform="translate(10,10) scale(1 1) translate(143,80)">15</text></g><g zIndex="1" style="cursor:default"><text x="3" zIndex="1" style="font-size:11px;color:#606060;fill:#606060" y="15" transform="translate(10,10) scale(1 1) translate(186,63)">25</text></g></g><g class="highcharts-tooltip" zIndex="8" style="cursor:default;padding:0;white-space:nowrap"><path fill="none" stroke="#000" stroke-width="5" d="M 3 0 L 13 0 C 16 0 16 0 16 3 L 16 13 C 16 16 16 16 13 16 L 3 16 C 0 16 0 16 0 13 L 0 3 C 0 0 0 0 3 0" isShadow="true" opacity=".05" transform="translate(0,-9999) translate(1, 1)"/><path fill="none" stroke="#000" stroke-width="3" d="M 3 0 L 13 0 C 16 0 16 0 16 3 L 16 13 C 16 16 16 16 13 16 L 3 16 C 0 16 0 16 0 13 L 0 3 C 0 0 0 0 3 0" isShadow="true" opacity=".1" transform="translate(0,-9999) translate(1, 1)"/><path fill="none" stroke="#000" stroke-width="1" d="M 3 0 L 13 0 C 16 0 16 0 16 3 L 16 13 C 16 16 16 16 13 16 L 3 16 C 0 16 0 16 0 13 L 0 3 C 0 0 0 0 3 0" isShadow="true" opacity=".15" transform="translate(0,-9999) translate(1, 1)"/><path fill="rgba(249, 249, 249, .85)" d="M 3 0 L 13 0 C 16 0 16 0 16 3 L 16 13 C 16 16 16 16 13 16 L 3 16 C 0 16 0 16 0 13 L 0 3 C 0 0 0 0 3 0" transform="translate(0,-9999)"/></g></svg>