<svg xmlns="http://www.w3.org/2000/svg" xmlns:xlink="http://www.w3.org/1999/xlink" width="150" version="1.1" style="font-family:&quot;Lucida Grande&quot;,&quot;Lucida Sans Unicode&quot;,Arial,Helvetica,sans-serif;font-size:12px" height="100"><desc>Created with Highstock 2.0.4-modified</desc><defs><clipPath id="highcharts-1"><rect width="75" height="130" x="0" y="0"/></clipPath></defs><rect width="150" height="100" x="0" y="0" fill="#FFF" class="highcharts-background" strokeWidth="0"/><g class="highcharts-grid" zIndex="1"><path fill="none" stroke="silver" stroke-width="1" d="M 9.5 10 L 9.5 85" opacity="1" zIndex="1"/><path fill="none" stroke="silver" stroke-width="1" d="M 35.5 10 L 35.5 85" opacity="1" zIndex="1"/><path fill="none" stroke="silver" stroke-width="1" d="M 61.5 10 L 61.5 85" opacity="1" zIndex="1"/><path fill="none" stroke="silver" stroke-width="1" d="M 87.5 10 L 87.5 85" opacity="1" zIndex="1"/><path fill="none" stroke="silver" stroke-width="1" d="M 113.5 10 L 113.5 85" opacity="1" zIndex="1"/><path fill="none" stroke="silver" stroke-width="1" d="M 140.5 10 L 140.5 85" opacity="1" zIndex="1"/></g><g class="highcharts-series-group" zIndex="3"><g width="130" height="75" class="highcharts-series highcharts-tracker" clip-path="url(#highcharts-1)" transform="translate(140,85) rotate(90) scale(-1,1) scale(1 1)" visibility="visible" zIndex=".1"><rect width="12" height="44" x="55.5" y="56.5" fill="#7cb5ec" stroke="#FFF" stroke-width="1" rx="0" ry="0"/><rect width="12" height="40" x="31.5" y="20.5" fill="#7cb5ec" stroke="#FFF" stroke-width="1" rx="0" ry="0"/><rect width="12" height="20" x="6.5" y="30.5" fill="#7cb5ec" stroke="#FFF" stroke-width="1" rx="0" ry="0"/></g><g width="130" height="75" class="highcharts-series highcharts-tracker" clip-path="url(#highcharts-1)" transform="translate(140,85) rotate(90) scale(-1,1) scale(1 1)" visibility="visible" zIndex=".1"><rect width="12" height="30" x="55.5" y="100.5" fill="#434348" stroke="#FFF" stroke-width="1" rx="0" ry="0"/><rect width="12" height="70" x="31.5" y="60.5" fill="#434348" stroke="#FFF" stroke-width="1" rx="0" ry="0"/><rect width="12" height="80" x="6.5" y="50.5" fill="#434348" stroke="#FFF" stroke-width="1" rx="0" ry="0"/></g></g><g class="highcharts-tooltip" zIndex="8" style="cursor:default;padding:0;white-space:nowrap"><path fill="none" stroke="#000" stroke-width="5" d="M 3 0 L 13 0 C 16 0 16 0 16 3 L 16 13 C 16 16 16 16 13 16 L 3 16 C 0 16 0 16 0 13 L 0 3 C 0 0 0 0 3 0" isShadow="true" opacity=".05" transform="translate(0,-9999) translate(1, 1)"/><path fill="none" stroke="#000" stroke-width="3" d="M 3 0 L 13 0 C 16 0 16 0 16 3 L 16 13 C 16 16 16 16 13 16 L 3 16 C 0 16 0 16 0 13 L 0 3 C 0 0 0 0 3 0" isShadow="true" opacity=".1" transform="translate(0,-9999) translate(1, 1)"/><path fill="none" stroke="#000" stroke-width="1" d="M 3 0 L 13 0 C 16 0 16 0 16 3 L 16 13 C 16 16 16 16 13 16 L 3 16 C 0 16 0 16 0 13 L 0 3 C 0 0 0 0 3 0" isShadow="true" opacity=".15" transform="translate(0,-9999) translate(1, 1)"/><path fill="rgba(249, 249, 249, .85)" d="M 3 0 L 13 0 C 16 0 16 0 16 3 L 16 13 C 16 16 16 16 13 16 L 3 16 C 0 16 0 16 0 13 L 0 3 C 0 0 0 0 3 0" transform="translate(0,-9999)"/></g></svg>