<svg xmlns="http://www.w3.org/2000/svg" xmlns:xlink="http://www.w3.org/1999/xlink" width="150" version="1.1" style="font-family:&quot;Lucida Grande&quot;,&quot;Lucida Sans Unicode&quot;,Arial,Helvetica,sans-serif;font-size:12px" height="100"><desc>Created with Highstock 2.0.4-modified</desc><defs><clipPath id="highcharts-1"><rect width="130" height="75" x="0" y="0"/></clipPath></defs><rect width="150" height="100" x="0" y="0" fill="#FFF" class="highcharts-background" strokeWidth="0"/><g class="highcharts-grid" zIndex="1"><path fill="none" stroke="silver" stroke-width="1" d="M 10 9.5 L 140 9.5" opacity="1" zIndex="1"/><path fill="none" stroke="silver" stroke-width="1" d="M 10 35.5 L 140 35.5" opacity="1" zIndex="1"/><path fill="none" stroke="silver" stroke-width="1" d="M 10 60.5 L 140 60.5" opacity="1" zIndex="1"/><path fill="none" stroke="silver" stroke-width="1" d="M 10 85.5 L 140 85.5" opacity="1" zIndex="1"/></g><g class="highcharts-series-group" zIndex="3"><g class="highcharts-markers highcharts-tracker" clip-path="none" visibility="visible" zIndex=".1"><path fill="#352b2d" d="M 128 42 C 131.996 42 131.996 48 128 48 C 124.004 48 124.004 42 128 42 Z" transform="translate(10,10) scale(1 1)"/><path fill="#352b2d" d="M 103 12 C 106.996 12 106.996 18 103 18 C 99.004 18 99.004 12 103 12 Z" transform="translate(10,10) scale(1 1)"/><path fill="#352b2d" d="M 77 38 C 80.996 38 80.996 44 77 44 C 73.004 44 73.004 38 77 38 Z" transform="translate(10,10) scale(1 1)"/><path fill="#352b2d" d="M 52 27 C 55.996 27 55.996 33 52 33 C 48.004 33 48.004 27 52 27 Z" transform="translate(10,10) scale(1 1)"/><path fill="#352b2d" d="M 26 56 C 29.996 56 29.996 62 26 62 C 22.004 62 22.004 56 26 56 Z" transform="translate(10,10) scale(1 1)"/><path fill="#352b2d" d="M 1 57 C 4.996 57 4.996 63 1 63 C -2.996 63 -2.996 57 1 57 Z" transform="translate(10,10) scale(1 1)"/></g><g class="highcharts-series" clip-path="url(#highcharts-1)" transform="translate(10,10) scale(1 1)" visibility="visible" zIndex=".1"><path fill="none" stroke="#7cb5ec" stroke-linecap="round" stroke-linejoin="round" stroke-width="2" d="M 1.2745098039215688 68 L 26.764705882352946 55 L 52.254901960784316 40 L 77.74509803921569 35 L 103.23529411764706 25 L 128.72549019607843 40" zIndex="1"/><path fill="none" stroke="rgba(192,192,192,0.0001)" stroke-linejoin="round" stroke-width="22" d="M -8.72549019607843 68 L 1.2745098039215688 68 L 26.764705882352946 55 L 52.254901960784316 40 L 77.74509803921569 35 L 103.23529411764706 25 L 128.72549019607843 40 L 138.72549019607843 40" class="highcharts-tracker" visibility="visible" zIndex="2"/></g><g class="highcharts-markers highcharts-tracker" clip-path="none" visibility="visible" zIndex=".1"><path fill="#7cb5ec" d="M 128 37 L 131 40 128 43 125 40 Z" transform="translate(10,10) scale(1 1)"/><path fill="#7cb5ec" d="M 103 22 L 106 25 103 28 100 25 Z" transform="translate(10,10) scale(1 1)"/><path fill="#7cb5ec" d="M 77 32 L 80 35 77 38 74 35 Z" transform="translate(10,10) scale(1 1)"/><path fill="#7cb5ec" d="M 52 37 L 55 40 52 43 49 40 Z" transform="translate(10,10) scale(1 1)"/><path fill="#7cb5ec" d="M 26 52 L 29 55 26 58 23 55 Z" transform="translate(10,10) scale(1 1)"/><path fill="#7cb5ec" d="M 1 65 L 4 68 1 71 -2 68 Z" transform="translate(10,10) scale(1 1)"/></g></g><g class="highcharts-tooltip" zIndex="8" style="cursor:default;padding:0;white-space:nowrap"><path fill="none" stroke="#000" stroke-width="5" d="M 3 0 L 13 0 C 16 0 16 0 16 3 L 16 13 C 16 16 16 16 13 16 L 3 16 C 0 16 0 16 0 13 L 0 3 C 0 0 0 0 3 0" isShadow="true" opacity=".05" transform="translate(0,-9999) translate(1, 1)"/><path fill="none" stroke="#000" stroke-width="3" d="M 3 0 L 13 0 C 16 0 16 0 16 3 L 16 13 C 16 16 16 16 13 16 L 3 16 C 0 16 0 16 0 13 L 0 3 C 0 0 0 0 3 0" isShadow="true" opacity=".1" transform="translate(0,-9999) translate(1, 1)"/><path fill="none" stroke="#000" stroke-width="1" d="M 3 0 L 13 0 C 16 0 16 0 16 3 L 16 13 C 16 16 16 16 13 16 L 3 16 C 0 16 0 16 0 13 L 0 3 C 0 0 0 0 3 0" isShadow="true" opacity=".15" transform="translate(0,-9999) translate(1, 1)"/><path fill="rgba(249, 249, 249, .85)" d="M 3 0 L 13 0 C 16 0 16 0 16 3 L 16 13 C 16 16 16 16 13 16 L 3 16 C 0 16 0 16 0 13 L 0 3 C 0 0 0 0 3 0" transform="translate(0,-9999)"/></g></svg>