<svg xmlns="http://www.w3.org/2000/svg" xmlns:xlink="http://www.w3.org/1999/xlink" width="150" version="1.1" style="font-family:&quot;Lucida Grande&quot;,&quot;Lucida Sans Unicode&quot;,Arial,Helvetica,sans-serif;font-size:12px" height="100"><desc>Created with Highstock 2.0.4-modified</desc><defs><clipPath id="highcharts-1"><rect width="130" height="75" x="0" y="0"/></clipPath></defs><rect width="150" height="100" x="0" y="0" fill="#FFF" class="highcharts-background" strokeWidth="0"/><g class="highcharts-series-group" zIndex="3"><g class="highcharts-series highcharts-tracker" visibility="visible" zIndex=".1"><path fill="#7cb5ec" stroke="#FFF" stroke-width="1" d="M 6.5 0 L 123.5 0 114.91747572815534 12.37864077669903 15.082524271844662 12.37864077669903 Z" transform="translate(10,10) scale(1 1)"/><path fill="#434348" stroke="#FFF" stroke-width="1" d="M 15.082524271844662 12.37864077669903 L 114.91747572815534 12.37864077669903 112.89805825242718 15.29126213592233 17.101941747572816 15.29126213592233 Z" transform="translate(10,10) scale(1 1)"/><path fill="#90ed7d" stroke="#FFF" stroke-width="1" d="M 17.101941747572816 15.29126213592233 L 112.89805825242718 15.29126213592233 109.86893203883496 19.660194174757283 20.131067961165044 19.660194174757283 Z" transform="translate(10,10) scale(1 1)"/><path fill="#f7a35c" stroke="#FFF" stroke-width="1" d="M 20.131067961165044 19.66019417475728 L 109.86893203883496 19.66019417475728 100.78155339805825 32.76699029126213 29.21844660194175 32.76699029126213 Z" transform="translate(10,10) scale(1 1)"/><path fill="#8085e9" stroke="#FFF" stroke-width="1" d="M 29.21844660194175 32.76699029126214 L 100.78155339805825 32.76699029126214 84.5 56.25 84.5 75 45.5 75 45.5 56.25 Z" transform="translate(10,10) scale(1 1)"/></g></g><g class="highcharts-tooltip" zIndex="8" style="cursor:default;padding:0;white-space:nowrap"><path fill="none" stroke="#000" stroke-width="5" d="M 3 0 L 13 0 C 16 0 16 0 16 3 L 16 13 C 16 16 16 16 13 16 L 3 16 C 0 16 0 16 0 13 L 0 3 C 0 0 0 0 3 0" isShadow="true" opacity=".05" transform="translate(0,-9999) translate(1, 1)"/><path fill="none" stroke="#000" stroke-width="3" d="M 3 0 L 13 0 C 16 0 16 0 16 3 L 16 13 C 16 16 16 16 13 16 L 3 16 C 0 16 0 16 0 13 L 0 3 C 0 0 0 0 3 0" isShadow="true" opacity=".1" transform="translate(0,-9999) translate(1, 1)"/><path fill="none" stroke="#000" stroke-width="1" d="M 3 0 L 13 0 C 16 0 16 0 16 3 L 16 13 C 16 16 16 16 13 16 L 3 16 C 0 16 0 16 0 13 L 0 3 C 0 0 0 0 3 0" isShadow="true" opacity=".15" transform="translate(0,-9999) translate(1, 1)"/><path fill="rgba(249, 249, 249, .85)" d="M 3 0 L 13 0 C 16 0 16 0 16 3 L 16 13 C 16 16 16 16 13 16 L 3 16 C 0 16 0 16 0 13 L 0 3 C 0 0 0 0 3 0" transform="translate(0,-9999)"/></g></svg>