<svg xmlns="http://www.w3.org/2000/svg" xmlns:xlink="http://www.w3.org/1999/xlink" width="150" version="1.1" style="font-family:&quot;Lucida Grande&quot;,&quot;Lucida Sans Unicode&quot;,Arial,Helvetica,sans-serif;font-size:12px" height="100"><desc>Created with Highstock 2.0.4-modified</desc><defs><clipPath id="highcharts-1"><rect width="130" height="75" x="0" y="0"/></clipPath></defs><rect width="150" height="100" x="0" y="0" fill="#FFF" class="highcharts-background" strokeWidth="0"/><g class="highcharts-grid" zIndex="1"><path fill="none" stroke="silver" stroke-width="1" d="M 10 9.5 L 140 9.5" opacity="1" zIndex="1"/><path fill="none" stroke="silver" stroke-width="1" d="M 10 85.5 L 140 85.5" opacity="1" zIndex="1"/></g><g class="highcharts-axis" zIndex="2"><path fill="none" stroke="#C0D0E0" stroke-width="1" d="M 10 85.5 L 140 85.5" visibility="visible" zIndex="7"/></g><g class="highcharts-series-group" zIndex="3"><g class="highcharts-series highcharts-tracker" clip-path="url(#highcharts-1)" transform="translate(10,10) scale(1 1)" visibility="visible" zIndex=".1"><g><path fill="none" stroke="#7cb5ec" stroke-width="1" d="M 12.5 37 L 12.5 33 M 12.5 45 L 12.5 58"/><path fill="none" stroke="#7cb5ec" stroke-width="2" d="M 9.5 33 L 15.5 33 M 9.5 58 L 15.5 58"/><path fill="#FFF" stroke="#7cb5ec" stroke-width="1" d="M 6.5 37.5 L 6.5 45.5 L 17.5 45.5 L 17.5 37.5 L 6.5 37.5 z"/><path fill="none" stroke="#7cb5ec" stroke-linecap="round" stroke-width="2" d="M 6.5 43 L 17.5 43"/></g><g><path fill="none" stroke="#7cb5ec" stroke-width="1" d="M 33.5 31 L 33.5 18 M 33.5 43 L 33.5 56"/><path fill="none" stroke="#7cb5ec" stroke-width="2" d="M 30.5 18 L 36.5 18 M 30.5 56 L 36.5 56"/><path fill="#FFF" stroke="#7cb5ec" stroke-width="1" d="M 27.5 31.5 L 27.5 43.5 L 38.5 43.5 L 38.5 31.5 L 27.5 31.5 z"/><path fill="none" stroke="#7cb5ec" stroke-linecap="round" stroke-width="2" d="M 27.5 41 L 38.5 41"/></g><g><path fill="none" stroke="#7cb5ec" stroke-width="1" d="M 54.5 39 L 54.5 37 M 54.5 45 L 54.5 54"/><path fill="none" stroke="#7cb5ec" stroke-width="2" d="M 51.5 37 L 57.5 37 M 51.5 54 L 57.5 54"/><path fill="#FFF" stroke="#7cb5ec" stroke-width="1" d="M 48.5 39.5 L 48.5 45.5 L 59.5 45.5 L 59.5 39.5 L 48.5 39.5 z"/><path fill="none" stroke="#7cb5ec" stroke-linecap="round" stroke-width="2" d="M 48.5 43 L 59.5 43"/></g><g><path fill="none" stroke="#7cb5ec" stroke-width="1" d="M 76.5 37 L 76.5 18 M 76.5 46 L 76.5 54"/><path fill="none" stroke="#7cb5ec" stroke-width="2" d="M 73.5 18 L 79.5 18 M 73.5 54 L 79.5 54"/><path fill="#FFF" stroke="#7cb5ec" stroke-width="1" d="M 70.5 37.5 L 70.5 46.5 L 81.5 46.5 L 81.5 37.5 L 70.5 37.5 z"/><path fill="none" stroke="#7cb5ec" stroke-linecap="round" stroke-width="2" d="M 70.5 41 L 81.5 41"/></g><g><path fill="none" stroke="#7cb5ec" stroke-width="1" d="M 97.5 46 L 97.5 37 M 97.5 52 L 97.5 61"/><path fill="none" stroke="#7cb5ec" stroke-width="2" d="M 94.5 37 L 100.5 37 M 94.5 61 L 100.5 61"/><path fill="#FFF" stroke="#7cb5ec" stroke-width="1" d="M 91.5 46.5 L 91.5 52.5 L 102.5 52.5 L 102.5 46.5 L 91.5 46.5 z"/><path fill="none" stroke="#7cb5ec" stroke-linecap="round" stroke-width="2" d="M 91.5 49 L 102.5 49"/></g><g><path fill="none" stroke="#7cb5ec" stroke-width="1" d="M 118.5 48 L 118.5 37 M 118.5 56 L 118.5 60"/><path fill="none" stroke="#7cb5ec" stroke-width="2" d="M 115.5 37 L 121.5 37 M 115.5 60 L 121.5 60"/><path fill="#FFF" stroke="#7cb5ec" stroke-width="1" d="M 112.5 48.5 L 112.5 56.5 L 123.5 56.5 L 123.5 48.5 L 112.5 48.5 z"/><path fill="none" stroke="#7cb5ec" stroke-linecap="round" stroke-width="2" d="M 112.5 53 L 123.5 53"/></g></g></g><g class="highcharts-tooltip" zIndex="8" style="cursor:default;padding:0;white-space:nowrap"><path fill="none" stroke="#000" stroke-width="5" d="M 3 0 L 13 0 C 16 0 16 0 16 3 L 16 13 C 16 16 16 16 13 16 L 3 16 C 0 16 0 16 0 13 L 0 3 C 0 0 0 0 3 0" isShadow="true" opacity=".05" transform="translate(0,-9999) translate(1, 1)"/><path fill="none" stroke="#000" stroke-width="3" d="M 3 0 L 13 0 C 16 0 16 0 16 3 L 16 13 C 16 16 16 16 13 16 L 3 16 C 0 16 0 16 0 13 L 0 3 C 0 0 0 0 3 0" isShadow="true" opacity=".1" transform="translate(0,-9999) translate(1, 1)"/><path fill="none" stroke="#000" stroke-width="1" d="M 3 0 L 13 0 C 16 0 16 0 16 3 L 16 13 C 16 16 16 16 13 16 L 3 16 C 0 16 0 16 0 13 L 0 3 C 0 0 0 0 3 0" isShadow="true" opacity=".15" transform="translate(0,-9999) translate(1, 1)"/><path fill="rgba(249, 249, 249, .85)" d="M 3 0 L 13 0 C 16 0 16 0 16 3 L 16 13 C 16 16 16 16 13 16 L 3 16 C 0 16 0 16 0 13 L 0 3 C 0 0 0 0 3 0" transform="translate(0,-9999)"/></g></svg>