<svg xmlns="http://www.w3.org/2000/svg" xmlns:xlink="http://www.w3.org/1999/xlink" width="150" version="1.1" style="font-family:&quot;Lucida Grande&quot;,&quot;Lucida Sans Unicode&quot;,Arial,Helvetica,sans-serif;font-size:12px" height="100"><desc>Created with Highstock 2.0.4-modified</desc><defs><clipPath id="highcharts-1"><rect width="130" height="75" x="0" y="0"/></clipPath></defs><rect width="150" height="100" x="0" y="0" fill="#FFF" class="highcharts-background" strokeWidth="0"/><g class="highcharts-grid" zIndex="1"><path fill="none" stroke="silver" stroke-width="1" d="M 10 9.5 L 140 9.5" opacity="1" zIndex="1"/><path fill="none" stroke="silver" stroke-width="1" d="M 10 85.5 L 140 85.5" opacity="1" zIndex="1"/></g><g class="highcharts-series-group" zIndex="3"><g class="highcharts-series highcharts-tracker" clip-path="url(#highcharts-1)" transform="translate(10,10) scale(1 1)" visibility="visible" zIndex=".1"><rect width="9" height="6.24" x="4.5" y="30" fill="#7cb5ec" stroke="#FFF" stroke-width="1" rx="0" ry="0"/><rect width="9" height="10.2" x="22.5" y="12" fill="#7cb5ec" stroke="#FFF" stroke-width="1" rx="0" ry="0"/><rect width="9" height="22.32" x="41.5" y="12" fill="#7cb5ec" stroke="#FFF" stroke-width="1" rx="0" ry="0"/><rect width="9" height="22.5" x="60.5" y="28.5" fill="#7cb5ec" stroke="#FFF" stroke-width="1" rx="0" ry="0"/><rect width="9" height="7.08" x="78.5" y="3" fill="#7cb5ec" stroke="#FFF" stroke-width="1" rx="0" ry="0"/><rect width="9" height="7.77" x="97.5" y="9" fill="#7cb5ec" stroke="#FFF" stroke-width="1" rx="0" ry="0"/><rect width="9" height="13.68" x="115.5" y="45" fill="#7cb5ec" stroke="#FFF" stroke-width="1" rx="0" ry="0"/></g></g><g class="highcharts-tooltip" zIndex="8" style="cursor:default;padding:0;white-space:nowrap"><path fill="none" stroke="#000" stroke-width="5" d="M 3 0 L 13 0 C 16 0 16 0 16 3 L 16 13 C 16 16 16 16 13 16 L 3 16 C 0 16 0 16 0 13 L 0 3 C 0 0 0 0 3 0" isShadow="true" opacity=".05" transform="translate(0,-9999) translate(1, 1)"/><path fill="none" stroke="#000" stroke-width="3" d="M 3 0 L 13 0 C 16 0 16 0 16 3 L 16 13 C 16 16 16 16 13 16 L 3 16 C 0 16 0 16 0 13 L 0 3 C 0 0 0 0 3 0" isShadow="true" opacity=".1" transform="translate(0,-9999) translate(1, 1)"/><path fill="none" stroke="#000" stroke-width="1" d="M 3 0 L 13 0 C 16 0 16 0 16 3 L 16 13 C 16 16 16 16 13 16 L 3 16 C 0 16 0 16 0 13 L 0 3 C 0 0 0 0 3 0" isShadow="true" opacity=".15" transform="translate(0,-9999) translate(1, 1)"/><path fill="rgba(249, 249, 249, .85)" d="M 3 0 L 13 0 C 16 0 16 0 16 3 L 16 13 C 16 16 16 16 13 16 L 3 16 C 0 16 0 16 0 13 L 0 3 C 0 0 0 0 3 0" transform="translate(0,-9999)"/></g></svg>