<svg xmlns="http://www.w3.org/2000/svg" xmlns:xlink="http://www.w3.org/1999/xlink" width="225" version="1.1" style="font-family:&quot;Lucida Grande&quot;,&quot;Lucida Sans Unicode&quot;,Arial,Helvetica,sans-serif;font-size:12px" height="150"><desc>Created with Highstock 2.0.4-modified</desc><defs><clipPath id="highcharts-1"><rect width="205" height="125" x="0" y="0"/></clipPath></defs><rect width="225" height="150" x="0" y="0" fill="#FFF" class="highcharts-background" strokeWidth="0"/><g class="highcharts-grid" zIndex="1"><path fill="none" stroke="silver" stroke-width="1" d="M 10 9.5 L 215 9.5" opacity="1" zIndex="1"/><path fill="none" stroke="silver" stroke-width="1" d="M 10 41.5 L 215 41.5" opacity="1" zIndex="1"/><path fill="none" stroke="silver" stroke-width="1" d="M 10 73.5 L 215 73.5" opacity="1" zIndex="1"/><path fill="none" stroke="silver" stroke-width="1" d="M 10 104.5 L 215 104.5" opacity="1" zIndex="1"/><path fill="none" stroke="silver" stroke-width="1" d="M 10 135.5 L 215 135.5" opacity="1" zIndex="1"/></g><g class="highcharts-series-group" zIndex="3"><g class="highcharts-series" clip-path="url(#highcharts-1)" transform="translate(10,10) scale(1 1)" visibility="visible" zIndex=".1"><path fill="rgba(124,181,236,0.75)" d="M 2.0098039215686274 62.5 L 52.25490196078431 56.25 L 102.5 37.5 L 152.7450980392157 56.25 L 202.99019607843135 18.75 202.99019607843135 93.75 152.7450980392157 106.25 102.5 50 52.25490196078431 81.25 2.0098039215686274 125" zIndex="0"/><path fill="none" stroke="#7cb5ec" stroke-linecap="round" stroke-linejoin="round" stroke-width="2" d="M 2.0098039215686274 62.5 L 52.25490196078431 56.25 L 102.5 37.5 L 152.7450980392157 56.25 L 202.99019607843135 18.75" zIndex="1"/><path fill="none" stroke="rgba(192,192,192,0.0001)" stroke-linejoin="round" stroke-width="22" d="M -7.990196078431373 62.5 L 2.0098039215686274 62.5 L 52.25490196078431 56.25 L 102.5 37.5 L 152.7450980392157 56.25 L 202.99019607843135 18.75 L 212.99019607843135 18.75" class="highcharts-tracker" visibility="visible" zIndex="2"/></g><g class="highcharts-series" clip-path="url(#highcharts-1)" transform="translate(10,10) scale(1 1)" visibility="visible" zIndex=".1"><path fill="rgba(67,67,72,0.75)" d="M 2.0098039215686274 125 L 52.25490196078431 81.25 L 102.5 50 L 152.7450980392157 106.25 L 202.99019607843135 93.75 202.99019607843135 125 152.7450980392157 125 102.5 125 52.25490196078431 125 2.0098039215686274 125" zIndex="0"/><path fill="none" stroke="#434348" stroke-linecap="round" stroke-linejoin="round" stroke-width="2" d="M 2.0098039215686274 125 L 52.25490196078431 81.25 L 102.5 50 L 152.7450980392157 106.25 L 202.99019607843135 93.75" zIndex="1"/><path fill="none" stroke="rgba(192,192,192,0.0001)" stroke-linejoin="round" stroke-width="22" d="M -7.990196078431373 125 L 2.0098039215686274 125 L 52.25490196078431 81.25 L 102.5 50 L 152.7450980392157 106.25 L 202.99019607843135 93.75 L 212.99019607843135 93.75" class="highcharts-tracker" visibility="visible" zIndex="2"/></g></g><g class="highcharts-data-labels" opacity="1" visibility="visible" zIndex="6"><g zIndex="1" style="cursor:default"><text x="3" zIndex="1" style="font-size:11px;color:#606060;fill:#606060" y="15" transform="translate(10,10) scale(1 1) translate(0,43)">50</text></g><g zIndex="1" style="cursor:default"><text x="3" zIndex="1" style="font-size:11px;color:#606060;fill:#606060" y="15" transform="translate(10,10) scale(1 1) translate(43,36)">20</text></g><g zIndex="1" style="cursor:default"><text x="3" zIndex="1" style="font-size:11px;color:#606060;fill:#606060" y="15" transform="translate(10,10) scale(1 1) translate(93,18)">10</text></g><g zIndex="1" style="cursor:default"><text x="3" zIndex="1" style="font-size:11px;color:#606060;fill:#606060" y="15" transform="translate(10,10) scale(1 1) translate(143,36)">40</text></g><g zIndex="1" style="cursor:default"><text x="3" zIndex="1" style="font-size:11px;color:#606060;fill:#606060" y="15" transform="translate(10,10) scale(1 1) translate(186,19)">60</text></g></g><g class="highcharts-data-labels" opacity="1" visibility="visible" zIndex="6"><g zIndex="1" style="cursor:default"><text x="3" zIndex="1" style="font-size:11px;color:#606060;fill:#606060" y="15" transform="translate(10,10) scale(1 1) translate(0,105)">0</text></g><g zIndex="1" style="cursor:default"><text x="3" zIndex="1" style="font-size:11px;color:#606060;fill:#606060" y="15" transform="translate(10,10) scale(1 1) translate(43,61)">35</text></g><g zIndex="1" style="cursor:default"><text x="3" zIndex="1" style="font-size:11px;color:#606060;fill:#606060" y="15" transform="translate(10,10) scale(1 1) translate(93,30)">60</text></g><g zIndex="1" style="cursor:default"><text x="3" zIndex="1" style="font-size:11px;color:#606060;fill:#606060" y="15" transform="translate(10,10) scale(1 1) translate(143,86)">15</text></g><g zIndex="1" style="cursor:default"><text x="3" zIndex="1" style="font-size:11px;color:#606060;fill:#606060" y="15" transform="translate(10,10) scale(1 1) translate(186,74)">25</text></g></g><g class="highcharts-tooltip" zIndex="8" style="cursor:default;padding:0;white-space:nowrap"><path fill="none" stroke="#000" stroke-width="5" d="M 3 0 L 13 0 C 16 0 16 0 16 3 L 16 13 C 16 16 16 16 13 16 L 3 16 C 0 16 0 16 0 13 L 0 3 C 0 0 0 0 3 0" isShadow="true" opacity=".05" transform="translate(0,-9999) translate(1, 1)"/><path fill="none" stroke="#000" stroke-width="3" d="M 3 0 L 13 0 C 16 0 16 0 16 3 L 16 13 C 16 16 16 16 13 16 L 3 16 C 0 16 0 16 0 13 L 0 3 C 0 0 0 0 3 0" isShadow="true" opacity=".1" transform="translate(0,-9999) translate(1, 1)"/><path fill="none" stroke="#000" stroke-width="1" d="M 3 0 L 13 0 C 16 0 16 0 16 3 L 16 13 C 16 16 16 16 13 16 L 3 16 C 0 16 0 16 0 13 L 0 3 C 0 0 0 0 3 0" isShadow="true" opacity=".15" transform="translate(0,-9999) translate(1, 1)"/><path fill="rgba(249, 249, 249, .85)" d="M 3 0 L 13 0 C 16 0 16 0 16 3 L 16 13 C 16 16 16 16 13 16 L 3 16 C 0 16 0 16 0 13 L 0 3 C 0 0 0 0 3 0" transform="translate(0,-9999)"/></g></svg>