<svg xmlns="http://www.w3.org/2000/svg" xmlns:xlink="http://www.w3.org/1999/xlink" width="225" version="1.1" style="font-family:&quot;Lucida Grande&quot;,&quot;Lucida Sans Unicode&quot;,Arial,Helvetica,sans-serif;font-size:12px" height="150"><desc>Created with Highstock 2.0.4-modified</desc><defs><clipPath id="highcharts-1"><rect width="125" height="205" x="0" y="0"/></clipPath></defs><rect width="225" height="150" x="0" y="0" fill="#FFF" class="highcharts-background" strokeWidth="0"/><g class="highcharts-grid" zIndex="1"><path fill="none" stroke="silver" stroke-width="1" d="M 9.5 10 L 9.5 135" opacity="1" zIndex="1"/><path fill="none" stroke="silver" stroke-width="1" d="M 50.5 10 L 50.5 135" opacity="1" zIndex="1"/><path fill="none" stroke="silver" stroke-width="1" d="M 91.5 10 L 91.5 135" opacity="1" zIndex="1"/><path fill="none" stroke="silver" stroke-width="1" d="M 132.5 10 L 132.5 135" opacity="1" zIndex="1"/><path fill="none" stroke="silver" stroke-width="1" d="M 173.5 10 L 173.5 135" opacity="1" zIndex="1"/><path fill="none" stroke="silver" stroke-width="1" d="M 214.5 10 L 214.5 135" opacity="1" zIndex="1"/></g><g class="highcharts-series-group" zIndex="3"><g width="205" height="125" class="highcharts-series highcharts-tracker" clip-path="url(#highcharts-1)" transform="translate(215,135) rotate(90) scale(-1,1) scale(1 1)" visibility="visible" zIndex=".1"><rect width="20" height="123" x="93.5" y="-.5" fill="#7cb5ec" stroke="#FFF" stroke-width="1" rx="0" ry="0"/><rect width="20" height="76" x="52.5" y="-.5" fill="#7cb5ec" stroke="#FFF" stroke-width="1" rx="0" ry="0"/><rect width="20" height="42" x="11.5" y="-.5" fill="#7cb5ec" stroke="#FFF" stroke-width="1" rx="0" ry="0"/></g><g width="205" height="125" class="highcharts-series highcharts-tracker" clip-path="url(#highcharts-1)" transform="translate(215,135) rotate(90) scale(-1,1) scale(1 1)" visibility="visible" zIndex=".1"><rect width="20" height="83" x="93.5" y="122.5" fill="#434348" stroke="#FFF" stroke-width="1" rx="0" ry="0"/><rect width="20" height="130" x="52.5" y="75.5" fill="#434348" stroke="#FFF" stroke-width="1" rx="0" ry="0"/><rect width="20" height="164" x="11.5" y="41.5" fill="#434348" stroke="#FFF" stroke-width="1" rx="0" ry="0"/></g></g><g class="highcharts-data-labels highcharts-tracker" opacity="1" visibility="visible" zIndex="6"><g zIndex="1" style="cursor:default"><text x="3" zIndex="1" style="font-size:11px;color:#fff;fill:#fff" y="15" transform="translate(10,10) scale(1 1) translate(134,12)">22</text></g><g zIndex="1" style="cursor:default"><text x="3" zIndex="1" style="font-size:11px;color:#fff;fill:#fff" y="15" transform="translate(10,10) scale(1 1) translate(158,53)">20</text></g><g zIndex="1" style="cursor:default"><text x="3" zIndex="1" style="font-size:11px;color:#fff;fill:#fff" y="15" transform="translate(10,10) scale(1 1) translate(175,94)">10</text></g></g><g class="highcharts-data-labels highcharts-tracker" opacity="1" visibility="visible" zIndex="6"><g zIndex="1" style="cursor:default"><text x="3" zIndex="1" style="font-size:11px;color:#fff;fill:#fff" y="15" transform="translate(10,10) scale(1 1) translate(31,12)">15</text></g><g zIndex="1" style="cursor:default"><text x="3" zIndex="1" style="font-size:11px;color:#fff;fill:#fff" y="15" transform="translate(10,10) scale(1 1) translate(55,53)">35</text></g><g zIndex="1" style="cursor:default"><text x="3" zIndex="1" style="font-size:11px;color:#fff;fill:#fff" y="15" transform="translate(10,10) scale(1 1) translate(72,94)">40</text></g></g><g class="highcharts-tooltip" zIndex="8" style="cursor:default;padding:0;white-space:nowrap"><path fill="none" stroke="#000" stroke-width="5" d="M 3 0 L 13 0 C 16 0 16 0 16 3 L 16 13 C 16 16 16 16 13 16 L 3 16 C 0 16 0 16 0 13 L 0 3 C 0 0 0 0 3 0" isShadow="true" opacity=".05" transform="translate(0,-9999) translate(1, 1)"/><path fill="none" stroke="#000" stroke-width="3" d="M 3 0 L 13 0 C 16 0 16 0 16 3 L 16 13 C 16 16 16 16 13 16 L 3 16 C 0 16 0 16 0 13 L 0 3 C 0 0 0 0 3 0" isShadow="true" opacity=".1" transform="translate(0,-9999) translate(1, 1)"/><path fill="none" stroke="#000" stroke-width="1" d="M 3 0 L 13 0 C 16 0 16 0 16 3 L 16 13 C 16 16 16 16 13 16 L 3 16 C 0 16 0 16 0 13 L 0 3 C 0 0 0 0 3 0" isShadow="true" opacity=".15" transform="translate(0,-9999) translate(1, 1)"/><path fill="rgba(249, 249, 249, .85)" d="M 3 0 L 13 0 C 16 0 16 0 16 3 L 16 13 C 16 16 16 16 13 16 L 3 16 C 0 16 0 16 0 13 L 0 3 C 0 0 0 0 3 0" transform="translate(0,-9999)"/></g></svg>