<svg xmlns="http://www.w3.org/2000/svg" xmlns:xlink="http://www.w3.org/1999/xlink" width="150" version="1.1" style="font-family:&quot;Lucida Grande&quot;,&quot;Lucida Sans Unicode&quot;,Arial,Helvetica,sans-serif;font-size:12px" height="100"><desc>Created with Highstock 2.0.4-modified</desc><defs><clipPath id="highcharts-1"><rect width="130" height="75" x="0" y="0"/></clipPath></defs><rect width="150" height="100" x="0" y="0" fill="#FFF" class="highcharts-background" strokeWidth="0"/><g class="highcharts-series-group" zIndex="3"><g class="highcharts-series highcharts-tracker" visibility="visible" zIndex=".1"><path fill="#7cb5ec" stroke="#FFF" stroke-width="1" d="M 6.5 75 L 123.5 75 113.84466019417476 62.62135922330097 16.155339805825243 62.62135922330097 Z" transform="translate(10,10) scale(1 1)"/><path fill="#434348" stroke="#FFF" stroke-width="1" d="M 16.155339805825243 62.62135922330097 L 113.84466019417476 62.62135922330097 111.57281553398059 59.70873786407767 18.42718446601942 59.70873786407767 Z" transform="translate(10,10) scale(1 1)"/><path fill="#90ed7d" stroke="#FFF" stroke-width="1" d="M 18.42718446601942 59.70873786407767 L 111.57281553398059 59.70873786407767 108.16504854368932 55.33980582524272 21.834951456310677 55.33980582524272 Z" transform="translate(10,10) scale(1 1)"/><path fill="#f7a35c" stroke="#FFF" stroke-width="1" d="M 21.834951456310677 55.33980582524272 L 108.16504854368932 55.33980582524272 97.94174757281553 42.23300970873787 32.05825242718446 42.23300970873787 Z" transform="translate(10,10) scale(1 1)"/><path fill="#8085e9" stroke="#FFF" stroke-width="1" d="M 32.05825242718447 42.23300970873786 L 97.94174757281553 42.23300970873786 65 0 65 0 Z" transform="translate(10,10) scale(1 1)"/></g></g><g class="highcharts-tooltip" zIndex="8" style="cursor:default;padding:0;white-space:nowrap"><path fill="none" stroke="#000" stroke-width="5" d="M 3 0 L 13 0 C 16 0 16 0 16 3 L 16 13 C 16 16 16 16 13 16 L 3 16 C 0 16 0 16 0 13 L 0 3 C 0 0 0 0 3 0" isShadow="true" opacity=".05" transform="translate(0,-9999) translate(1, 1)"/><path fill="none" stroke="#000" stroke-width="3" d="M 3 0 L 13 0 C 16 0 16 0 16 3 L 16 13 C 16 16 16 16 13 16 L 3 16 C 0 16 0 16 0 13 L 0 3 C 0 0 0 0 3 0" isShadow="true" opacity=".1" transform="translate(0,-9999) translate(1, 1)"/><path fill="none" stroke="#000" stroke-width="1" d="M 3 0 L 13 0 C 16 0 16 0 16 3 L 16 13 C 16 16 16 16 13 16 L 3 16 C 0 16 0 16 0 13 L 0 3 C 0 0 0 0 3 0" isShadow="true" opacity=".15" transform="translate(0,-9999) translate(1, 1)"/><path fill="rgba(249, 249, 249, .85)" d="M 3 0 L 13 0 C 16 0 16 0 16 3 L 16 13 C 16 16 16 16 13 16 L 3 16 C 0 16 0 16 0 13 L 0 3 C 0 0 0 0 3 0" transform="translate(0,-9999)"/></g></svg>