<svg xmlns="http://www.w3.org/2000/svg" xmlns:xlink="http://www.w3.org/1999/xlink" width="150" version="1.1" style="font-family:&quot;Lucida Grande&quot;,&quot;Lucida Sans Unicode&quot;,Arial,Helvetica,sans-serif;font-size:12px" height="100"><desc>Created with Highstock 2.0.4-modified</desc><defs><clipPath id="highcharts-1"><rect width="75" height="130" x="0" y="0"/></clipPath></defs><rect width="150" height="100" x="0" y="0" fill="#FFF" class="highcharts-background" strokeWidth="0"/><g class="highcharts-grid" zIndex="1"><path fill="none" stroke="silver" stroke-width="1" d="M 140.5 10 L 140.5 85" opacity="1" zIndex="1"/><path fill="none" stroke="silver" stroke-width="1" d="M 9.5 10 L 9.5 85" opacity="1" zIndex="1"/></g><g class="highcharts-series-group" zIndex="3"><g width="130" height="75" class="highcharts-series highcharts-tracker" clip-path="url(#highcharts-1)" transform="translate(140,85) rotate(90) scale(-1,1) scale(1 1)" visibility="visible" zIndex=".1"><rect width="4" height="3" x="68.5" y="127.5" fill="#7cb5ec" stroke="#FFF" stroke-width="1" rx="0" ry="0"/><rect width="4" height="18" x="62.5" y="112.5" fill="#7cb5ec" stroke="#FFF" stroke-width="1" rx="0" ry="0"/><rect width="4" height="44" x="55.5" y="86.5" fill="#7cb5ec" stroke="#FFF" stroke-width="1" rx="0" ry="0"/><rect width="4" height="70" x="48.5" y="60.5" fill="#7cb5ec" stroke="#FFF" stroke-width="1" rx="0" ry="0"/><rect width="4" height="88" x="42.5" y="42.5" fill="#7cb5ec" stroke="#FFF" stroke-width="1" rx="0" ry="0"/><rect width="4" height="97" x="35.5" y="33.5" fill="#7cb5ec" stroke="#FFF" stroke-width="1" rx="0" ry="0"/><rect width="4" height="93" x="28.5" y="37.5" fill="#7cb5ec" stroke="#FFF" stroke-width="1" rx="0" ry="0"/><rect width="4" height="74" x="22.5" y="56.5" fill="#7cb5ec" stroke="#FFF" stroke-width="1" rx="0" ry="0"/><rect width="4" height="47" x="15.5" y="83.5" fill="#7cb5ec" stroke="#FFF" stroke-width="1" rx="0" ry="0"/><rect width="4" height="20" x="8.5" y="110.5" fill="#7cb5ec" stroke="#FFF" stroke-width="1" rx="0" ry="0"/><rect width="4" height="5" x="1.5" y="125.5" fill="#7cb5ec" stroke="#FFF" stroke-width="1" rx="0" ry="0"/></g><g width="130" height="75" class="highcharts-series highcharts-tracker" clip-path="url(#highcharts-1)" transform="translate(140,85) rotate(90) scale(-1,1) scale(1 1)" visibility="visible" zIndex=".1"><g><path fill="none" stroke="#352b2d" stroke-width="1" d="M 70.5 78 L 70.5 130 M 70.5 78 L 70.5 78"/><path fill="none" stroke="#352b2d" stroke-width="1" d="M 69.5 130.5 L 71.5 130.5 M 69.5 78.5 L 71.5 78.5"/><path fill="none" stroke="#352b2d" stroke-linecap="round" stroke-width="2" d="M 0 0"/></g><g><path fill="none" stroke="#352b2d" stroke-width="1" d="M 64.5 78 L 64.5 130 M 64.5 78 L 64.5 78"/><path fill="none" stroke="#352b2d" stroke-width="1" d="M 63.5 130.5 L 65.5 130.5 M 63.5 78.5 L 65.5 78.5"/><path fill="none" stroke="#352b2d" stroke-linecap="round" stroke-width="2" d="M 0 0"/></g><g><path fill="none" stroke="#352b2d" stroke-width="1" d="M 57.5 26 L 57.5 93 M 57.5 26 L 57.5 26"/><path fill="none" stroke="#352b2d" stroke-width="1" d="M 56.5 93.5 L 58.5 93.5 M 56.5 26.5 L 58.5 26.5"/><path fill="none" stroke="#352b2d" stroke-linecap="round" stroke-width="2" d="M 0 0"/></g><g><path fill="none" stroke="#352b2d" stroke-width="1" d="M 50.5 35 L 50.5 104 M 50.5 35 L 50.5 35"/><path fill="none" stroke="#352b2d" stroke-width="1" d="M 49.5 104.5 L 51.5 104.5 M 49.5 35.5 L 51.5 35.5"/><path fill="none" stroke="#352b2d" stroke-linecap="round" stroke-width="2" d="M 0 0"/></g><g><path fill="none" stroke="#352b2d" stroke-width="1" d="M 44.5 26 L 44.5 83 M 44.5 26 L 44.5 26"/><path fill="none" stroke="#352b2d" stroke-width="1" d="M 43.5 83.5 L 45.5 83.5 M 43.5 26.5 L 45.5 26.5"/><path fill="none" stroke="#352b2d" stroke-linecap="round" stroke-width="2" d="M 0 0"/></g><g><path fill="none" stroke="#352b2d" stroke-width="1" d="M 37.5 15 L 37.5 46 M 37.5 15 L 37.5 15"/><path fill="none" stroke="#352b2d" stroke-width="1" d="M 36.5 46.5 L 38.5 46.5 M 36.5 15.5 L 38.5 15.5"/><path fill="none" stroke="#352b2d" stroke-linecap="round" stroke-width="2" d="M 0 0"/></g><g><path fill="none" stroke="#352b2d" stroke-width="1" d="M 30.5 15 L 30.5 52 M 30.5 15 L 30.5 15"/><path fill="none" stroke="#352b2d" stroke-width="1" d="M 29.5 52.5 L 31.5 52.5 M 29.5 15.5 L 31.5 15.5"/><path fill="none" stroke="#352b2d" stroke-linecap="round" stroke-width="2" d="M 0 0"/></g><g><path fill="none" stroke="#352b2d" stroke-width="1" d="M 24.5 41 L 24.5 78 M 24.5 41 L 24.5 41"/><path fill="none" stroke="#352b2d" stroke-width="1" d="M 23.5 78.5 L 25.5 78.5 M 23.5 41.5 L 25.5 41.5"/><path fill="none" stroke="#352b2d" stroke-linecap="round" stroke-width="2" d="M 0 0"/></g><g><path fill="none" stroke="#352b2d" stroke-width="1" d="M 17.5 67 L 17.5 104 M 17.5 67 L 17.5 67"/><path fill="none" stroke="#352b2d" stroke-width="1" d="M 16.5 104.5 L 18.5 104.5 M 16.5 67.5 L 18.5 67.5"/><path fill="none" stroke="#352b2d" stroke-linecap="round" stroke-width="2" d="M 0 0"/></g><g><path fill="none" stroke="#352b2d" stroke-width="1" d="M 10.5 78 L 10.5 130 M 10.5 78 L 10.5 78"/><path fill="none" stroke="#352b2d" stroke-width="1" d="M 9.5 130.5 L 11.5 130.5 M 9.5 78.5 L 11.5 78.5"/><path fill="none" stroke="#352b2d" stroke-linecap="round" stroke-width="2" d="M 0 0"/></g><g><path fill="none" stroke="#352b2d" stroke-width="1" d="M 3.5 104 L 3.5 130 M 3.5 104 L 3.5 104"/><path fill="none" stroke="#352b2d" stroke-width="1" d="M 2.5 130.5 L 4.5 130.5 M 2.5 104.5 L 4.5 104.5"/><path fill="none" stroke="#352b2d" stroke-linecap="round" stroke-width="2" d="M 0 0"/></g></g></g><g class="highcharts-tooltip" zIndex="8" style="cursor:default;padding:0;white-space:nowrap"><path fill="none" stroke="#000" stroke-width="5" d="M 3 0 L 13 0 C 16 0 16 0 16 3 L 16 13 C 16 16 16 16 13 16 L 3 16 C 0 16 0 16 0 13 L 0 3 C 0 0 0 0 3 0" isShadow="true" opacity=".05" transform="translate(0,-9999) translate(1, 1)"/><path fill="none" stroke="#000" stroke-width="3" d="M 3 0 L 13 0 C 16 0 16 0 16 3 L 16 13 C 16 16 16 16 13 16 L 3 16 C 0 16 0 16 0 13 L 0 3 C 0 0 0 0 3 0" isShadow="true" opacity=".1" transform="translate(0,-9999) translate(1, 1)"/><path fill="none" stroke="#000" stroke-width="1" d="M 3 0 L 13 0 C 16 0 16 0 16 3 L 16 13 C 16 16 16 16 13 16 L 3 16 C 0 16 0 16 0 13 L 0 3 C 0 0 0 0 3 0" isShadow="true" opacity=".15" transform="translate(0,-9999) translate(1, 1)"/><path fill="rgba(249, 249, 249, .85)" d="M 3 0 L 13 0 C 16 0 16 0 16 3 L 16 13 C 16 16 16 16 13 16 L 3 16 C 0 16 0 16 0 13 L 0 3 C 0 0 0 0 3 0" transform="translate(0,-9999)"/></g></svg>