<svg xmlns="http://www.w3.org/2000/svg" xmlns:xlink="http://www.w3.org/1999/xlink" width="150" version="1.1" style="font-family:&quot;Lucida Grande&quot;,&quot;Lucida Sans Unicode&quot;,Arial,Helvetica,sans-serif;font-size:12px" height="100"><desc>Created with Highstock 2.0.4-modified</desc><defs><clipPath id="highcharts-1"><rect width="75" height="130" x="0" y="0"/></clipPath></defs><rect width="150" height="100" x="0" y="0" fill="#FFF" class="highcharts-background" strokeWidth="0"/><g class="highcharts-grid" zIndex="1"><path fill="none" stroke="silver" stroke-width="1" d="M 9.5 10 L 9.5 85" opacity="1" zIndex="1"/><path fill="none" stroke="silver" stroke-width="1" d="M 42.5 10 L 42.5 85" opacity="1" zIndex="1"/><path fill="none" stroke="silver" stroke-width="1" d="M 74.5 10 L 74.5 85" opacity="1" zIndex="1"/><path fill="none" stroke="silver" stroke-width="1" d="M 107.5 10 L 107.5 85" opacity="1" zIndex="1"/><path fill="none" stroke="silver" stroke-width="1" d="M 140.5 10 L 140.5 85" opacity="1" zIndex="1"/></g><g class="highcharts-series-group" zIndex="3"><g width="130" height="75" class="highcharts-series" clip-path="url(#highcharts-1)" transform="translate(140,85) rotate(90) scale(-1,1) scale(1 1)" visibility="visible" zIndex=".1"><path fill="none" stroke="#7cb5ec" stroke-linecap="round" stroke-linejoin="round" stroke-width="2" d="M 74.24669279764821 78 L 55.87334639882411 71.5 L 37.50000000000001 84.5 L 19.126653601175903 45.5 L 0.7533072023517917 19.5" zIndex="1"/><path fill="none" stroke="rgba(192,192,192,0.0001)" stroke-linejoin="round" stroke-width="22" d="M 64.24669279764821 78 L 74.24669279764821 78 L 55.87334639882411 71.5 L 37.50000000000001 84.5 L 19.126653601175903 45.5 L 0.7533072023517917 19.5 L 10.753307202351792 19.5" class="highcharts-tracker" visibility="visible" zIndex="2"/></g><g width="130" height="75" class="highcharts-series" clip-path="url(#highcharts-1)" transform="translate(140,85) rotate(90) scale(-1,1) scale(1 1)" visibility="visible" zIndex=".1"><path fill="none" stroke="#434348" stroke-linecap="round" stroke-linejoin="round" stroke-width="2" d="M 74.24669279764821 117 L 55.87334639882411 52 L 37.50000000000001 45.5 L 19.126653601175903 78 L 0.7533072023517917 65" zIndex="1"/><path fill="none" stroke="rgba(192,192,192,0.0001)" stroke-linejoin="round" stroke-width="22" d="M 64.24669279764821 117 L 74.24669279764821 117 L 55.87334639882411 52 L 37.50000000000001 45.5 L 19.126653601175903 78 L 0.7533072023517917 65 L 10.753307202351792 65" class="highcharts-tracker" visibility="visible" zIndex="2"/></g></g><g class="highcharts-tooltip" zIndex="8" style="cursor:default;padding:0;white-space:nowrap"><path fill="none" stroke="#000" stroke-width="5" d="M 3 0 L 13 0 C 16 0 16 0 16 3 L 16 13 C 16 16 16 16 13 16 L 3 16 C 0 16 0 16 0 13 L 0 3 C 0 0 0 0 3 0" isShadow="true" opacity=".05" transform="translate(0,-9999) translate(1, 1)"/><path fill="none" stroke="#000" stroke-width="3" d="M 3 0 L 13 0 C 16 0 16 0 16 3 L 16 13 C 16 16 16 16 13 16 L 3 16 C 0 16 0 16 0 13 L 0 3 C 0 0 0 0 3 0" isShadow="true" opacity=".1" transform="translate(0,-9999) translate(1, 1)"/><path fill="none" stroke="#000" stroke-width="1" d="M 3 0 L 13 0 C 16 0 16 0 16 3 L 16 13 C 16 16 16 16 13 16 L 3 16 C 0 16 0 16 0 13 L 0 3 C 0 0 0 0 3 0" isShadow="true" opacity=".15" transform="translate(0,-9999) translate(1, 1)"/><path fill="rgba(249, 249, 249, .85)" d="M 3 0 L 13 0 C 16 0 16 0 16 3 L 16 13 C 16 16 16 16 13 16 L 3 16 C 0 16 0 16 0 13 L 0 3 C 0 0 0 0 3 0" transform="translate(0,-9999)"/></g></svg>