<svg xmlns="http://www.w3.org/2000/svg" xmlns:xlink="http://www.w3.org/1999/xlink" width="300" version="1.1" style="font-family:&quot;Lucida Grande&quot;,&quot;Lucida Sans Unicode&quot;,Arial,Helvetica,sans-serif;font-size:12px" height="200"><desc>Created with Highstock 2.0.4-modified</desc><defs><clipPath id="highcharts-1"><rect width="300" height="200" x="0" y="0"/></clipPath></defs><rect width="300" height="200" x="0" y="0" fill="#FFF" class="highcharts-background" strokeWidth="0"/><g class="highcharts-series-group" zIndex="3"><g class="highcharts-series highcharts-tracker" visibility="visible" zIndex=".1" style="cursor:pointer"><path fill="rgba(99,156,211,1)" d="M 205.074435038653 33.790829630434075 L 205.074435038653 39.09413048933318 L 140 66.3033008588991 L 140 61 Z" transform="translate(10,10) scale(1 1) translate(0,0)" visibility="visible" zIndex="-74.844"/><path fill="rgba(103,108,208,1)" d="M 169.21679713201544 110.30384754431775 L 169.21679713201544 115.60714840321685 L 140 66.3033008588991 L 140 61 Z" transform="translate(10,10) scale(1 1) translate(0,0)" visibility="visible" zIndex="-74.844"/><path fill="rgba(99,156,211,1)" d="M 139.98460230580065 7.542728451074993 C 167.54843017167397 7.538758744240498 191.0447461542599 17.01387418637664 205.074435038653 33.790829630434075 L 205.074435038653 39.09413048933318 C 191.0447461542599 22.317175045275746 167.54843017167397 12.842059603139603 139.98460230580065 12.8460293099741 Z" transform="translate(10,10) scale(1 1) translate(0,0)" visibility="visible" zIndex="-38.48"/><path fill="rgba(99,156,211,1)" d="M 140 61 C 140 61 140 61 140 61 L 140 66.3033008588991 C 140 66.3033008588991 140 66.3033008588991 140 66.3033008588991 Z" transform="translate(10,10) scale(1 1) translate(0,0)" visibility="visible" zIndex="-38.48"/><path fill="rgba(99,156,211,1)" d="M 139.98460230580065 7.542728451074993 L 139.98460230580065 12.8460293099741 L 140 66.3033008588991 L 140 61 Z" transform="translate(10,10) scale(1 1) translate(0,0)" visibility="visible" zIndex="-38.095"/><path fill="rgba(42,42,47,1)" d="M 212.44302080525557 45.713261685217006 L 212.44302080525557 51.01656254411611 L 140 66.3033008588991 L 140 61 Z" transform="translate(10,10) scale(1 1) translate(0,0)" visibility="visible" zIndex="-38.094"/><path fill="rgba(42,42,47,1)" d="M 205.07481983117685 33.79128977753751 C 208.37576381441835 37.7387083289121 210.58844311851496 41.31889032950441 212.44302080525557 45.713261685217006 L 212.44302080525557 51.01656254411611 C 210.58844311851496 46.62219118840352 208.37576381441835 43.0420091878112 205.07481983117685 39.094590636436614 Z" transform="translate(10,10) scale(1 1) translate(0,0)" visibility="visible" zIndex="-21.619"/><path fill="rgba(42,42,47,1)" d="M 140 61 C 140 61 140 61 140 61 L 140 66.3033008588991 C 140 66.3033008588991 140 66.3033008588991 140 66.3033008588991 Z" transform="translate(10,10) scale(1 1) translate(0,0)" visibility="visible" zIndex="-21.619"/><path fill="rgba(42,42,47,1)" d="M 205.07481983117685 33.79128977753751 L 205.07481983117685 39.094590636436614 L 140 66.3033008588991 L 140 61 Z" transform="translate(10,10) scale(1 1) translate(0,0)" visibility="visible" zIndex="-21.403"/><path fill="rgba(119,212,100,1)" d="M 215.3818296675589 65.05830974490223 L 215.3818296675589 70.36161060380134 L 140 66.3033008588991 L 140 61 Z" transform="translate(10,10) scale(1 1) translate(0,0)" visibility="visible" zIndex="-21.402"/><path fill="rgba(119,212,100,1)" d="M 215.6 61 C 215.6 62.428257181438184 215.53517120294666 63.63417430081968 215.3818296675589 65.05830974490223 L 215.3818296675589 70.36161060380134 C 215.53517120294666 68.93747515971879 215.6 67.73155804033729 215.6 66.3033008588991 Z" transform="translate(10,10) scale(1 1) translate(0,0)" visibility="visible" zIndex="5.739"/><path fill="rgba(119,212,100,1)" d="M 140 61 C 140 61 140 61 140 61 L 140 66.3033008588991 C 140 66.3033008588991 140 66.3033008588991 140 66.3033008588991 Z" transform="translate(10,10) scale(1 1) translate(0,0)" visibility="visible" zIndex="5.739"/><path fill="rgba(119,212,100,1)" d="M 212.4432369887599 45.71377393549395 L 212.4432369887599 51.017074794393054 L 140 66.3033008588991 L 140 61 Z" transform="translate(10,10) scale(1 1) translate(0,0)" visibility="visible" zIndex="5.682"/><path fill="rgba(222,138,67,1)" d="M 169.21749439225334 110.3036409478988 L 169.21749439225334 115.6069418067979 L 140 66.3033008588991 L 140 61 Z" transform="translate(10,10) scale(1 1) translate(0,0)" visibility="visible" zIndex="5.683"/><path fill="rgba(222,138,67,1)" d="M 215.381772270623 65.05884277472867 C 213.1658282477489 85.63635673225208 196.13504565703008 102.32792771443908 169.21749439225334 110.3036409478988 L 169.21749439225334 115.6069418067979 C 196.13504565703008 107.63122857333819 213.1658282477489 90.93965759115119 215.381772270623 70.36214363362778 Z" transform="translate(10,10) scale(1 1) translate(0,0)" visibility="visible" zIndex="69.726"/><path fill="rgba(222,138,67,1)" d="M 140 61 C 140 61 140 61 140 61 L 140 66.3033008588991 C 140 66.3033008588991 140 66.3033008588991 140 66.3033008588991 Z" transform="translate(10,10) scale(1 1) translate(0,0)" visibility="visible" zIndex="69.726"/><path fill="rgba(222,138,67,1)" d="M 215.381772270623 65.05884277472867 L 215.381772270623 70.36214363362778 L 140 66.3033008588991 L 140 61 Z" transform="translate(10,10) scale(1 1) translate(0,0)" visibility="visible" zIndex="69.029"/><path fill="rgba(103,108,208,1)" d="M 169.21679713201544 110.30384754431775 C 130.70809684630086 121.71371655153861 86.40982162056264 108.8891584833089 70.27383012565043 81.65939537659979 C 66.19774333759489 74.78092883327423 64.4 68.45791819072384 64.4 61.00000000000001 L 64.4 66.3033008588991 C 64.4 95.82693731529513 98.247272912792 119.7605735166021 140 119.7605735166021 C 150.54708905239067 119.7605735166021 159.48917645811485 118.48937701175582 169.21679713201544 115.60714840321685 Z" transform="translate(10,10) scale(1 1) translate(0,0)" visibility="visible" zIndex="69.726"/><path fill="rgba(103,108,208,1)" d="M 140 61 C 140 61 140 61 140 61 C 140 61 140 61 140 61 C 140 61 140 61 140 61 L 140 66.3033008588991 C 140 66.3033008588991 140 66.3033008588991 140 66.3033008588991 C 140 66.3033008588991 140 66.3033008588991 140 66.3033008588991 C 140 66.3033008588991 140 66.3033008588991 140 66.3033008588991 Z" transform="translate(10,10) scale(1 1) translate(0,0)" visibility="visible" zIndex="69.726"/><path fill="rgba(103,108,208,1)" d="M 139.9698370837177 7.542731597104208 L 139.9698370837177 12.846032456003314 L 140 66.3033008588991 L 140 61 Z" transform="translate(10,10) scale(1 1) translate(0,0)" visibility="visible" zIndex="69.029"/><g stroke="#7cb5ec" stroke-linejoin="round" stroke-width="1" zIndex="7560"><path fill="#7cb5ec" d="M 139.98460230580065 7.542728451074993 C 167.54843017167397 7.538758744240498 191.0447461542599 17.01387418637664 205.074435038653 33.790829630434075 L 140 61 C 140 61 140 61 140 61 Z" transform="translate(10,10) scale(1 1) translate(0,0)" visibility="visible" zIndex="75.6"/></g><g stroke="#434348" stroke-linejoin="round" stroke-width="1" zIndex="7560"><path fill="#434348" d="M 205.07481983117685 33.79128977753751 C 208.37576381441835 37.7387083289121 210.58844311851496 41.31889032950441 212.44302080525557 45.713261685217006 L 140 61 C 140 61 140 61 140 61 Z" transform="translate(10,10) scale(1 1) translate(0,0)" visibility="visible" zIndex="75.6"/></g><g stroke="#90ed7d" stroke-linejoin="round" stroke-width="1" zIndex="7560"><path fill="#90ed7d" d="M 212.4432369887599 45.71377393549395 C 215.22504830396338 52.30544069205288 216.12036721903362 58.199258143641885 215.3818296675589 65.05830974490223 L 140 61 C 140 61 140 61 140 61 Z" transform="translate(10,10) scale(1 1) translate(0,0)" visibility="visible" zIndex="75.6"/></g><g stroke="#f7a35c" stroke-linejoin="round" stroke-width="1" zIndex="7560"><path fill="#f7a35c" d="M 215.381772270623 65.05884277472867 C 213.1658282477489 85.63635673225208 196.13504565703008 102.32792771443908 169.21749439225334 110.3036409478988 L 140 61 C 140 61 140 61 140 61 Z" transform="translate(10,10) scale(1 1) translate(0,0)" visibility="visible" zIndex="75.6"/></g><g stroke="#8085e9" stroke-linejoin="round" stroke-width="1" zIndex="7560"><path fill="#8085e9" d="M 169.21679713201544 110.30384754431775 C 130.70809684630086 121.71371655153861 86.40982162056264 108.8891584833089 70.27383012565043 81.65939537659979 C 54.137838630738244 54.42963226989068 72.27450258226997 23.106021462903147 110.78320286798453 11.696152455682267 C 120.50104237815829 8.816821940198455 129.43335401260097 7.545704168152812 139.9698370837177 7.542731597104208 L 140 61 C 140 61 140 61 140 61 C 140 61 140 61 140 61 C 140 61 140 61 140 61 Z" transform="translate(10,10) scale(1 1) translate(0,0)" visibility="visible" zIndex="75.6"/></g></g></g><g class="highcharts-legend" zIndex="7"><g zIndex="1"><g><g class="highcharts-legend-item" transform="translate(32,152) translate(8,3)" zIndex="1"><text x="21" style="color:#333;font-size:12px;font-weight:700;cursor:pointer;fill:#333" y="15" text-anchor="start" zIndex="2">Firefox</text><rect width="16" height="12" x="0" y="4" fill="#7cb5ec" zIndex="3"/></g><g class="highcharts-legend-item" transform="translate(32,152) translate(95,3)" zIndex="1"><text x="21" y="15" style="color:#333;font-size:12px;font-weight:700;cursor:pointer;fill:#333" text-anchor="start" zIndex="2">Opera</text><rect width="16" height="12" x="0" y="4" fill="#434348" zIndex="3"/></g><g class="highcharts-legend-item" transform="translate(32,152) translate(176,3)" zIndex="1"><text x="21" y="15" style="color:#333;font-size:12px;font-weight:700;cursor:pointer;fill:#333" text-anchor="start" zIndex="2">Safari</text><rect width="16" height="12" x="0" y="4" fill="#90ed7d" zIndex="3"/></g><g class="highcharts-legend-item" transform="translate(32,152) translate(8,18)" zIndex="1"><text x="21" y="15" style="color:#333;font-size:12px;font-weight:700;cursor:pointer;fill:#333" text-anchor="start" zIndex="2">Chrome</text><rect width="16" height="12" x="0" y="4" fill="#f7a35c" zIndex="3"/></g><g class="highcharts-legend-item" transform="translate(32,152) translate(100,18)" zIndex="1"><text x="21" y="15" style="color:#333;font-size:12px;font-weight:700;cursor:pointer;fill:#333" text-anchor="start" zIndex="2">IE</text><rect width="16" height="12" x="0" y="4" fill="#8085e9" zIndex="3"/></g></g></g></g><g class="highcharts-tooltip" zIndex="8" style="cursor:default;padding:0;white-space:nowrap"><path fill="none" stroke="#000" stroke-width="5" d="M 3 0 L 13 0 C 16 0 16 0 16 3 L 16 13 C 16 16 16 16 13 16 L 3 16 C 0 16 0 16 0 13 L 0 3 C 0 0 0 0 3 0" isShadow="true" opacity=".05" transform="translate(0,-9999) translate(1, 1)"/><path fill="none" stroke="#000" stroke-width="3" d="M 3 0 L 13 0 C 16 0 16 0 16 3 L 16 13 C 16 16 16 16 13 16 L 3 16 C 0 16 0 16 0 13 L 0 3 C 0 0 0 0 3 0" isShadow="true" opacity=".1" transform="translate(0,-9999) translate(1, 1)"/><path fill="none" stroke="#000" stroke-width="1" d="M 3 0 L 13 0 C 16 0 16 0 16 3 L 16 13 C 16 16 16 16 13 16 L 3 16 C 0 16 0 16 0 13 L 0 3 C 0 0 0 0 3 0" isShadow="true" opacity=".15" transform="translate(0,-9999) translate(1, 1)"/><path fill="rgba(249, 249, 249, .85)" d="M 3 0 L 13 0 C 16 0 16 0 16 3 L 16 13 C 16 16 16 16 13 16 L 3 16 C 0 16 0 16 0 13 L 0 3 C 0 0 0 0 3 0" transform="translate(0,-9999)"/></g></svg>