<svg xmlns="http://www.w3.org/2000/svg" xmlns:xlink="http://www.w3.org/1999/xlink" width="150" version="1.1" style="font-family:&quot;Lucida Grande&quot;,&quot;Lucida Sans Unicode&quot;,Arial,Helvetica,sans-serif;font-size:12px" height="100"><desc>Created with Highstock 2.0.4-modified</desc><defs><clipPath id="highcharts-1"><rect width="130" height="75" x="0" y="0"/></clipPath></defs><rect width="150" height="100" x="0" y="0" fill="#FFF" class="highcharts-background" strokeWidth="0"/><g class="highcharts-grid" zIndex="1"><path fill="none" stroke="silver" stroke-width="1" d="M 10 9.5 L 140 9.5" opacity="1" zIndex="1"/><path fill="none" stroke="silver" stroke-width="1" d="M 10 85.5 L 140 85.5" opacity="1" zIndex="1"/></g><g class="highcharts-series-group" zIndex="3"><g class="highcharts-series" clip-path="url(#highcharts-1)" transform="translate(10,10) scale(1 1)" visibility="visible" zIndex=".1"><path fill="rgba(124,181,236,0.75)" d="M 9.285714285714286 36.24 L 27.85714285714286 22.200000000000003 L 46.42857142857143 34.32 L 65.00000000000001 51 L 83.57142857142858 10.079999999999998 L 102.14285714285715 16.770000000000003 L 120.71428571428574 58.68 L 120.71428571428574 45 L 102.14285714285715 9 L 83.57142857142858 3 L 65.00000000000001 28.5 L 46.42857142857143 12 L 27.85714285714286 12 L 9.285714285714286 30" zIndex="0"/><path fill="none" stroke="#7cb5ec" stroke-linecap="round" stroke-linejoin="round" stroke-width="1" d="M 9.285714285714286 36.24 L 27.85714285714286 22.200000000000003 L 46.42857142857143 34.32 L 65.00000000000001 51 L 83.57142857142858 10.079999999999998 L 102.14285714285715 16.770000000000003 L 120.71428571428574 58.68 M 120.71428571428574 45 L 102.14285714285715 9 L 83.57142857142858 3 L 65.00000000000001 28.5 L 46.42857142857143 12 L 27.85714285714286 12 L 9.285714285714286 30" zIndex="1"/><path fill="rgba(192,192,192,0.0001)" stroke="rgba(192,192,192,0.0001)" stroke-linejoin="round" stroke-width="1" d="M 9.285714285714286 36.24 L 27.85714285714286 22.200000000000003 L 46.42857142857143 34.32 L 65.00000000000001 51 L 83.57142857142858 10.079999999999998 L 102.14285714285715 16.770000000000003 L 120.71428571428574 58.68 L 120.71428571428574 45 L 102.14285714285715 9 L 83.57142857142858 3 L 65.00000000000001 28.5 L 46.42857142857143 12 L 27.85714285714286 12 L 9.285714285714286 30" class="highcharts-tracker" visibility="visible" zIndex="2"/></g></g><g class="highcharts-tooltip" zIndex="8" style="cursor:default;padding:0;white-space:nowrap"><path fill="none" stroke="#000" stroke-width="5" d="M 3 0 L 13 0 C 16 0 16 0 16 3 L 16 13 C 16 16 16 16 13 16 L 3 16 C 0 16 0 16 0 13 L 0 3 C 0 0 0 0 3 0" isShadow="true" opacity=".05" transform="translate(0,-9999) translate(1, 1)"/><path fill="none" stroke="#000" stroke-width="3" d="M 3 0 L 13 0 C 16 0 16 0 16 3 L 16 13 C 16 16 16 16 13 16 L 3 16 C 0 16 0 16 0 13 L 0 3 C 0 0 0 0 3 0" isShadow="true" opacity=".1" transform="translate(0,-9999) translate(1, 1)"/><path fill="none" stroke="#000" stroke-width="1" d="M 3 0 L 13 0 C 16 0 16 0 16 3 L 16 13 C 16 16 16 16 13 16 L 3 16 C 0 16 0 16 0 13 L 0 3 C 0 0 0 0 3 0" isShadow="true" opacity=".15" transform="translate(0,-9999) translate(1, 1)"/><path fill="rgba(249, 249, 249, .85)" d="M 3 0 L 13 0 C 16 0 16 0 16 3 L 16 13 C 16 16 16 16 13 16 L 3 16 C 0 16 0 16 0 13 L 0 3 C 0 0 0 0 3 0" transform="translate(0,-9999)"/></g></svg>