<svg xmlns="http://www.w3.org/2000/svg" xmlns:xlink="http://www.w3.org/1999/xlink" width="150" version="1.1" style="font-family:&quot;Lucida Grande&quot;,&quot;Lucida Sans Unicode&quot;,Arial,Helvetica,sans-serif;font-size:12px" height="100"><desc>Created with Highstock 2.0.4-modified</desc><defs><clipPath id="highcharts-1"><rect width="130" height="75" x="0" y="0"/></clipPath></defs><rect width="150" height="100" x="0" y="0" fill="#FFF" class="highcharts-background" strokeWidth="0"/><g class="highcharts-grid" zIndex="1"><path fill="none" stroke="silver" stroke-width="1" d="M 10 9.5 L 140 9.5" opacity="1" zIndex="1"/><path fill="none" stroke="silver" stroke-width="1" d="M 10 35.5 L 140 35.5" opacity="1" zIndex="1"/><path fill="none" stroke="silver" stroke-width="1" d="M 10 60.5 L 140 60.5" opacity="1" zIndex="1"/><path fill="none" stroke="silver" stroke-width="1" d="M 10 85.5 L 140 85.5" opacity="1" zIndex="1"/></g><g class="highcharts-series-group" zIndex="3"><g class="highcharts-series" clip-path="url(#highcharts-1)" transform="translate(10,10) scale(1 1)" visibility="visible" zIndex=".1"><path fill="none" stroke="#7cb5ec" stroke-linecap="round" stroke-linejoin="round" stroke-width="2" d="M 1.2745098039215688 42.5 C 1.2745098039215688 42.5 12.19887955182073 40 19.481792717086837 40 C 26.76470588235294 40 30.406162464985993 45 37.6890756302521 45 C 44.97198879551821 45 48.613445378151255 30 55.896358543417364 30 C 63.17927170868347 30 66.82072829131653 35 74.10364145658264 35 C 81.38655462184875 35 85.02801120448179 32 92.3109243697479 30 C 99.59383753501399 28.000000000000004 103.23529411764704 30 110.51820728291317 25 C 117.80112044817926 20 128.72549019607843 5 128.72549019607843 5" zIndex="1"/><path fill="none" stroke="rgba(192,192,192,0.0001)" stroke-linejoin="round" stroke-width="22" d="M -8.72549019607843 42.5 L 1.2745098039215688 42.5 C 1.2745098039215688 42.5 12.19887955182073 40 19.481792717086837 40 C 26.76470588235294 40 30.406162464985993 45 37.6890756302521 45 C 44.97198879551821 45 48.613445378151255 30 55.896358543417364 30 C 63.17927170868347 30 66.82072829131653 35 74.10364145658264 35 C 81.38655462184875 35 85.02801120448179 32 92.3109243697479 30 C 99.59383753501399 28.000000000000004 103.23529411764704 30 110.51820728291317 25 C 117.80112044817926 20 128.72549019607843 5 128.72549019607843 5 L 138.72549019607843 5" class="highcharts-tracker" visibility="visible" zIndex="2"/></g><g class="highcharts-series" clip-path="url(#highcharts-1)" transform="translate(10,10) scale(1 1)" visibility="visible" zIndex=".1"><path fill="none" stroke="#434348" stroke-linecap="round" stroke-linejoin="round" stroke-width="2" d="M 1.2745098039215688 57.5 C 1.2745098039215688 57.5 12.19887955182073 39.400000000000006 19.481792717086837 32.5 C 26.76470588235294 25.6 30.406162464985993 23 37.6890756302521 23 C 44.97198879551821 23 48.613445378151255 57.5 55.896358543417364 57.5 C 63.17927170868347 57.5 66.82072829131653 16 74.10364145658264 16 C 81.38655462184875 16 85.02801120448179 27.19999999999999 92.3109243697479 35 C 99.59383753501399 42.79999999999999 103.23529411764704 55 110.51820728291317 55 C 117.80112044817926 55 128.72549019607843 45 128.72549019607843 45" zIndex="1"/><path fill="none" stroke="rgba(192,192,192,0.0001)" stroke-linejoin="round" stroke-width="22" d="M -8.72549019607843 57.5 L 1.2745098039215688 57.5 C 1.2745098039215688 57.5 12.19887955182073 39.400000000000006 19.481792717086837 32.5 C 26.76470588235294 25.6 30.406162464985993 23 37.6890756302521 23 C 44.97198879551821 23 48.613445378151255 57.5 55.896358543417364 57.5 C 63.17927170868347 57.5 66.82072829131653 16 74.10364145658264 16 C 81.38655462184875 16 85.02801120448179 27.19999999999999 92.3109243697479 35 C 99.59383753501399 42.79999999999999 103.23529411764704 55 110.51820728291317 55 C 117.80112044817926 55 128.72549019607843 45 128.72549019607843 45 L 138.72549019607843 45" class="highcharts-tracker" visibility="visible" zIndex="2"/></g></g><g class="highcharts-tooltip" zIndex="8" style="cursor:default;padding:0;white-space:nowrap"><path fill="none" stroke="#000" stroke-width="5" d="M 3 0 L 13 0 C 16 0 16 0 16 3 L 16 13 C 16 16 16 16 13 16 L 3 16 C 0 16 0 16 0 13 L 0 3 C 0 0 0 0 3 0" isShadow="true" opacity=".05" transform="translate(0,-9999) translate(1, 1)"/><path fill="none" stroke="#000" stroke-width="3" d="M 3 0 L 13 0 C 16 0 16 0 16 3 L 16 13 C 16 16 16 16 13 16 L 3 16 C 0 16 0 16 0 13 L 0 3 C 0 0 0 0 3 0" isShadow="true" opacity=".1" transform="translate(0,-9999) translate(1, 1)"/><path fill="none" stroke="#000" stroke-width="1" d="M 3 0 L 13 0 C 16 0 16 0 16 3 L 16 13 C 16 16 16 16 13 16 L 3 16 C 0 16 0 16 0 13 L 0 3 C 0 0 0 0 3 0" isShadow="true" opacity=".15" transform="translate(0,-9999) translate(1, 1)"/><path fill="rgba(249, 249, 249, .85)" d="M 3 0 L 13 0 C 16 0 16 0 16 3 L 16 13 C 16 16 16 16 13 16 L 3 16 C 0 16 0 16 0 13 L 0 3 C 0 0 0 0 3 0" transform="translate(0,-9999)"/></g></svg>