<svg xmlns="http://www.w3.org/2000/svg" xmlns:xlink="http://www.w3.org/1999/xlink" width="150" version="1.1" style="font-family:&quot;Lucida Grande&quot;,&quot;Lucida Sans Unicode&quot;,Arial,Helvetica,sans-serif;font-size:12px" height="100"><desc>Created with Highstock 2.0.4-modified</desc><defs><clipPath id="highcharts-1"><rect width="130" height="90" x="0" y="0"/></clipPath></defs><rect width="150" height="100" x="0" y="0" fill="#FFF" class="highcharts-background" strokeWidth="0"/><g class="highcharts-grid" zIndex="1"><path fill="none" stroke="silver" stroke-width="1" d="M 75 50 L 111.37791174828962 61.81990003484174" opacity="1" zIndex="1"/><path fill="none" stroke="silver" stroke-width="1" d="M 75 50 L 75 88.25" opacity="1" zIndex="1"/><path fill="none" stroke="silver" stroke-width="1" d="M 75 50 L 38.62208825171038 61.819900034841744" opacity="1" zIndex="1"/><path fill="none" stroke="silver" stroke-width="1" d="M 75 50 L 52.5172140998129 19.055099965158263" opacity="1" zIndex="1"/><path fill="none" stroke="silver" stroke-width="1" d="M 75 50 L 97.48278590018708 19.055099965158256" opacity="1" zIndex="1"/><path fill="none" stroke="silver" stroke-width="1" d="M 75 50 L 97.4827859001871 19.05509996515826" opacity="1" zIndex="1"/></g><g class="highcharts-grid" zIndex="1"><path fill="none" stroke="silver" stroke-width="1" d="M 97.4827859001871 19.05509996515826 L 97.48278590018708 19.055099965158256 L 52.5172140998129 19.055099965158263 L 38.62208825171038 61.819900034841744 L 75 88.25 L 111.37791174828962 61.81990003484174 L 97.4827859001871 19.05509996515826" opacity="1" zIndex="1"/><path fill="none" stroke="silver" stroke-width="1" d="M 86.24139295009354 34.52754998257913 L 86.24139295009354 34.52754998257913 L 63.758607049906445 34.52754998257913 L 56.81104412585519 55.90995001742087 L 75 69.125 L 93.18895587414481 55.90995001742087 L 86.24139295009354 34.52754998257913" opacity="1" zIndex="1"/><path fill="none" stroke="silver" stroke-width="1" d="M 75 50 L 75 50 L 75 50 L 75 50 L 75 50 L 75 50 L 75 50" opacity="1" zIndex="1"/></g><g class="highcharts-series-group" zIndex="3"><g class="highcharts-series" clip-path="url(#highcharts-1)" transform="translate(10,5) scale(1 1)" visibility="visible" zIndex=".1"><path fill="none" stroke="#7cb5ec" stroke-linecap="round" stroke-linejoin="round" stroke-width="2" d="M 68.1475900260262 40.667713995122156 L 72.27558234965792 47.36398000696835 L 65 48.825 L 50.44883530068415 49.727960013936695 L 51.51032845988774 26.43305997909496 L 68.1475900260262 40.667713995122156" zIndex="1"/><path fill="none" stroke="rgba(192,192,192,0.0001)" stroke-linejoin="round" stroke-width="22" d="M 58.147590026026194 40.667713995122156 L 68.1475900260262 40.667713995122156 L 72.27558234965792 47.36398000696835 L 65 48.825 L 50.44883530068415 49.727960013936695 L 51.51032845988774 26.43305997909496 L 68.1475900260262 40.667713995122156 L 78.1475900260262 40.667713995122156" class="highcharts-tracker" visibility="visible" zIndex="2"/></g><g class="highcharts-series" clip-path="url(#highcharts-1)" transform="translate(10,5) scale(1 1)" visibility="visible" zIndex=".1"><path fill="none" stroke="#434348" stroke-linecap="round" stroke-linejoin="round" stroke-width="2" d="M 61.62758211497194 49.64173500522626 L 77.73226911190137 49.13696501219461 L 65 60.3 L 59.543313237756564 46.77298500522626 L 59.37930352495323 37.263774991289566 L 61.62758211497194 49.64173500522626" zIndex="1"/><path fill="none" stroke="rgba(192,192,192,0.0001)" stroke-linejoin="round" stroke-width="22" d="M 51.62758211497194 49.64173500522626 L 61.62758211497194 49.64173500522626 L 77.73226911190137 49.13696501219461 L 65 60.3 L 59.543313237756564 46.77298500522626 L 59.37930352495323 37.263774991289566 L 61.62758211497194 49.64173500522626 L 71.62758211497194 49.64173500522626" class="highcharts-tracker" visibility="visible" zIndex="2"/></g></g><g class="highcharts-tooltip" zIndex="8" style="cursor:default;padding:0;white-space:nowrap"><path fill="none" stroke="#000" stroke-width="5" d="M 3 0 L 13 0 C 16 0 16 0 16 3 L 16 13 C 16 16 16 16 13 16 L 3 16 C 0 16 0 16 0 13 L 0 3 C 0 0 0 0 3 0" isShadow="true" opacity=".05" transform="translate(0,-9999) translate(1, 1)"/><path fill="none" stroke="#000" stroke-width="3" d="M 3 0 L 13 0 C 16 0 16 0 16 3 L 16 13 C 16 16 16 16 13 16 L 3 16 C 0 16 0 16 0 13 L 0 3 C 0 0 0 0 3 0" isShadow="true" opacity=".1" transform="translate(0,-9999) translate(1, 1)"/><path fill="none" stroke="#000" stroke-width="1" d="M 3 0 L 13 0 C 16 0 16 0 16 3 L 16 13 C 16 16 16 16 13 16 L 3 16 C 0 16 0 16 0 13 L 0 3 C 0 0 0 0 3 0" isShadow="true" opacity=".15" transform="translate(0,-9999) translate(1, 1)"/><path fill="rgba(249, 249, 249, .85)" d="M 3 0 L 13 0 C 16 0 16 0 16 3 L 16 13 C 16 16 16 16 13 16 L 3 16 C 0 16 0 16 0 13 L 0 3 C 0 0 0 0 3 0" transform="translate(0,-9999)"/></g></svg>