<svg xmlns="http://www.w3.org/2000/svg" xmlns:xlink="http://www.w3.org/1999/xlink" width="150" version="1.1" style="font-family:&quot;Lucida Grande&quot;,&quot;Lucida Sans Unicode&quot;,Arial,Helvetica,sans-serif;font-size:12px" height="100"><desc>Created with Highstock 2.0.4-modified</desc><defs><clipPath id="highcharts-1"><rect width="130" height="80" x="0" y="0"/></clipPath></defs><rect width="150" height="100" x="0" y="0" fill="#FFF" class="highcharts-background" strokeWidth="0"/><g class="highcharts-grid" zIndex="1"><path fill="none" stroke="silver" stroke-width="1" d="M 9.5 10 L 9.5 90" opacity="1" zIndex="1"/><path fill="none" stroke="silver" stroke-width="1" d="M 35.5 10 L 35.5 90" opacity="1" zIndex="1"/><path fill="none" stroke="silver" stroke-width="1" d="M 61.5 10 L 61.5 90" opacity="1" zIndex="1"/><path fill="none" stroke="silver" stroke-width="1" d="M 87.5 10 L 87.5 90" opacity="1" zIndex="1"/><path fill="none" stroke="silver" stroke-width="1" d="M 113.5 10 L 113.5 90" opacity="1" zIndex="1"/></g><g class="highcharts-grid" zIndex="1"><path fill="none" stroke="silver" stroke-width="1" d="M 10 9.5 L 140 9.5" opacity="1" zIndex="1"/><path fill="none" stroke="silver" stroke-width="1" d="M 10 30.5 L 140 30.5" opacity="1" zIndex="1"/><path fill="none" stroke="silver" stroke-width="1" d="M 10 50.5 L 140 50.5" opacity="1" zIndex="1"/><path fill="none" stroke="silver" stroke-width="1" d="M 10 70.5 L 140 70.5" opacity="1" zIndex="1"/><path fill="none" stroke="silver" stroke-width="1" d="M 10 90.5 L 140 90.5" opacity="1" zIndex="1"/></g><g class="highcharts-axis" zIndex="2"><path fill="none" stroke="#C0D0E0" stroke-width="1" d="M 10 90.5 L 140 90.5" visibility="visible" zIndex="7"/></g><g class="highcharts-series-group" zIndex="3"><g class="highcharts-series highcharts-tracker" clip-path="url(#highcharts-1)" transform="translate(10,10) scale(1 1)" visibility="visible" zIndex=".1"><circle cx="122.414" cy="30.4" r="6.5" fill="rgba(124,181,236,0.5)" stroke="#7cb5ec" stroke-width="1"/><circle cx="88.555" cy="29.6" r="6.5" fill="rgba(124,181,236,0.5)" stroke="#7cb5ec" stroke-width="1"/><circle cx="83.346" cy="25.2" r="6.5" fill="rgba(124,181,236,0.5)" stroke="#7cb5ec" stroke-width="1"/><circle cx="88.555" cy="49.2" r="6.5" fill="rgba(124,181,236,0.5)" stroke="#7cb5ec" stroke-width="1"/><circle cx="96.369" cy="20.4" r="6" fill="rgba(124,181,236,0.5)" stroke="#7cb5ec" stroke-width="1"/><circle cx="9.116" cy="22.8" r="7" fill="rgba(124,181,236,0.5)" stroke="#7cb5ec" stroke-width="1"/><circle cx="66.416" cy="32.4" r="6" fill="rgba(124,181,236,0.5)" stroke="#7cb5ec" stroke-width="1"/><circle cx="49.487" cy="50.8" r="6" fill="rgba(124,181,236,0.5)" stroke="#7cb5ec" stroke-width="1"/></g><g class="highcharts-series highcharts-tracker" clip-path="url(#highcharts-1)" transform="translate(10,10) scale(1 1)" visibility="visible" zIndex=".1"><circle cx="122.414" cy="59.2" r="6.5" fill="rgba(67,67,72,0.5)" stroke="#434348" stroke-width="1"/><circle cx="88.555" cy="55.6" r="6.5" fill="rgba(67,67,72,0.5)" stroke="#434348" stroke-width="1"/><circle cx="83.346" cy="25.6" r="6.5" fill="rgba(67,67,72,0.5)" stroke="#434348" stroke-width="1"/><circle cx="88.555" cy="58" r="4" fill="rgba(67,67,72,0.5)" stroke="#434348" stroke-width="1"/><circle cx="96.369" cy="34.8" r="6" fill="rgba(67,67,72,0.5)" stroke="#434348" stroke-width="1"/><circle cx="9.116" cy="46.8" r="5.5" fill="rgba(67,67,72,0.5)" stroke="#434348" stroke-width="1"/><circle cx="66.416" cy="58.8" r="6.5" fill="rgba(67,67,72,0.5)" stroke="#434348" stroke-width="1"/><circle cx="49.487" cy="33.2" r="6" fill="rgba(67,67,72,0.5)" stroke="#434348" stroke-width="1"/></g></g><g class="highcharts-tooltip" zIndex="8" style="cursor:default;padding:0;white-space:nowrap"><path fill="none" stroke="#000" stroke-width="5" d="M 3 0 L 13 0 C 16 0 16 0 16 3 L 16 13 C 16 16 16 16 13 16 L 3 16 C 0 16 0 16 0 13 L 0 3 C 0 0 0 0 3 0" isShadow="true" opacity=".05" transform="translate(0,-9999) translate(1, 1)"/><path fill="none" stroke="#000" stroke-width="3" d="M 3 0 L 13 0 C 16 0 16 0 16 3 L 16 13 C 16 16 16 16 13 16 L 3 16 C 0 16 0 16 0 13 L 0 3 C 0 0 0 0 3 0" isShadow="true" opacity=".1" transform="translate(0,-9999) translate(1, 1)"/><path fill="none" stroke="#000" stroke-width="1" d="M 3 0 L 13 0 C 16 0 16 0 16 3 L 16 13 C 16 16 16 16 13 16 L 3 16 C 0 16 0 16 0 13 L 0 3 C 0 0 0 0 3 0" isShadow="true" opacity=".15" transform="translate(0,-9999) translate(1, 1)"/><path fill="rgba(249, 249, 249, .85)" d="M 3 0 L 13 0 C 16 0 16 0 16 3 L 16 13 C 16 16 16 16 13 16 L 3 16 C 0 16 0 16 0 13 L 0 3 C 0 0 0 0 3 0" transform="translate(0,-9999)"/></g></svg>