<svg xmlns="http://www.w3.org/2000/svg" xmlns:xlink="http://www.w3.org/1999/xlink" width="150" version="1.1" style="font-family:&quot;Lucida Grande&quot;,&quot;Lucida Sans Unicode&quot;,Arial,Helvetica,sans-serif;font-size:12px" height="100"><desc>Created with Highstock 2.0.4-modified</desc><defs><clipPath id="highcharts-1"><rect width="130" height="80" x="0" y="0"/></clipPath></defs><rect width="150" height="100" x="0" y="0" fill="#FFF" class="highcharts-background" strokeWidth="0"/><g class="highcharts-grid" zIndex="1"><path fill="none" stroke="silver" stroke-width="1" d="M 9.5 10 L 9.5 90" opacity="1" zIndex="1"/><path fill="none" stroke="silver" stroke-width="1" d="M 58.5 10 L 58.5 90" opacity="1" zIndex="1"/><path fill="none" stroke="silver" stroke-width="1" d="M 106.5 10 L 106.5 90" opacity="1" zIndex="1"/></g><g class="highcharts-grid" zIndex="1"><path fill="none" stroke="silver" stroke-width="1" d="M 10 9.5 L 140 9.5" opacity="1" zIndex="1"/><path fill="none" stroke="silver" stroke-width="1" d="M 10 37.5 L 140 37.5" opacity="1" zIndex="1"/><path fill="none" stroke="silver" stroke-width="1" d="M 10 63.5 L 140 63.5" opacity="1" zIndex="1"/><path fill="none" stroke="silver" stroke-width="1" d="M 10 90.5 L 140 90.5" opacity="1" zIndex="1"/></g><g class="highcharts-axis" zIndex="2"><path fill="none" stroke="#C0D0E0" stroke-width="1" d="M 10 90.5 L 140 90.5" visibility="visible" zIndex="7"/></g><g class="highcharts-series-group" zIndex="3"><g class="highcharts-series" clip-path="url(#highcharts-1)" transform="translate(10,10) scale(1 1)" visibility="visible" zIndex=".1"><path fill="none" stroke="#7cb5ec" stroke-linecap="round" stroke-linejoin="round" stroke-width="1" d="M 54.488978705886694 51.626666666666665 L 109.46446615021893 47.78666666666666 L 101.68032633509227 48.85333333333333 L 48.65087384454174 56.53333333333333 L 21.406384491598395 57.38666666666666 L 58.38104861345009 48 L 128.9248156880356 18.133333333333333 L 48.65087384454174 48.64 L 54.975487444332224 34.239999999999995 L 79.78743310504848 46.29333333333333" zIndex="1"/></g><g class="highcharts-series" clip-path="url(#highcharts-1)" transform="translate(10,10) scale(1 1)" visibility="visible" zIndex=".1"><path fill="none" stroke="#434348" stroke-linecap="round" stroke-linejoin="round" stroke-width="1" d="M 54.488978705886694 36.69333333333334 L 109.46446615021893 24.960000000000008 L 101.68032633509227 17.49333333333334 L 48.65087384454174 41.70666666666667 L 21.406384491598395 26.880000000000003 L 58.38104861345009 32 L 128.9248156880356 29.439999999999998 L 48.65087384454174 16.960000000000008 L 54.975487444332224 33.49333333333334 L 79.78743310504848 21.226666666666674" zIndex="1"/></g></g><g class="highcharts-tooltip" zIndex="8" style="cursor:default;padding:0;white-space:nowrap"><path fill="none" stroke="#000" stroke-width="5" d="M 3 0 L 13 0 C 16 0 16 0 16 3 L 16 13 C 16 16 16 16 13 16 L 3 16 C 0 16 0 16 0 13 L 0 3 C 0 0 0 0 3 0" isShadow="true" opacity=".05" transform="translate(0,-9999) translate(1, 1)"/><path fill="none" stroke="#000" stroke-width="3" d="M 3 0 L 13 0 C 16 0 16 0 16 3 L 16 13 C 16 16 16 16 13 16 L 3 16 C 0 16 0 16 0 13 L 0 3 C 0 0 0 0 3 0" isShadow="true" opacity=".1" transform="translate(0,-9999) translate(1, 1)"/><path fill="none" stroke="#000" stroke-width="1" d="M 3 0 L 13 0 C 16 0 16 0 16 3 L 16 13 C 16 16 16 16 13 16 L 3 16 C 0 16 0 16 0 13 L 0 3 C 0 0 0 0 3 0" isShadow="true" opacity=".15" transform="translate(0,-9999) translate(1, 1)"/><path fill="rgba(249, 249, 249, .85)" d="M 3 0 L 13 0 C 16 0 16 0 16 3 L 16 13 C 16 16 16 16 13 16 L 3 16 C 0 16 0 16 0 13 L 0 3 C 0 0 0 0 3 0" transform="translate(0,-9999)"/></g></svg>