<svg xmlns="http://www.w3.org/2000/svg" xmlns:xlink="http://www.w3.org/1999/xlink" width="150" version="1.1" style="font-family:&quot;Lucida Grande&quot;,&quot;Lucida Sans Unicode&quot;,Arial,Helvetica,sans-serif;font-size:12px" height="100"><desc>Created with Highstock 2.0.4-modified</desc><defs><clipPath id="highcharts-1"><rect width="130" height="75" x="0" y="0"/></clipPath><clipPath id="highcharts-2"><rect width="150" height="38" x="0" y="0"/></clipPath><clipPath id="highcharts-3"><rect width="150" height="150" x="0" y="38"/></clipPath></defs><rect width="150" height="100" x="0" y="0" fill="#FFF" class="highcharts-background" strokeWidth="0"/><g class="highcharts-grid" zIndex="1"><path fill="none" stroke="silver" stroke-width="1" d="M 10 9.5 L 140 9.5" opacity="1" zIndex="1"/><path fill="none" stroke="silver" stroke-width="1" d="M 10 85.5 L 140 85.5" opacity="1" zIndex="1"/></g><g class="highcharts-series-group" zIndex="3"><g class="highcharts-series" clip-path="url(#highcharts-1)" transform="translate(10,10) scale(1 1)" visibility="visible" zIndex=".1"><path fill="rgba(255,0,0,0.75)" d="M 9.285714285714286 54.375 L 27.85714285714286 22.5 L 46.42857142857143 7.5 L 65.00000000000001 45 L 83.57142857142858 18.75 L 102.14285714285715 45 L 120.71428571428574 57.9 L 120.71428571428574 37.5 L 9.285714285714286 37.5" clip-path="url(#highcharts-2)" zIndex="0"/><path fill="rgba(0,136,255,0.75)" d="M 9.285714285714286 54.375 L 27.85714285714286 22.5 L 46.42857142857143 7.5 L 65.00000000000001 45 L 83.57142857142858 18.75 L 102.14285714285715 45 L 120.71428571428574 57.9 L 120.71428571428574 37.5 L 9.285714285714286 37.5" clip-path="url(#highcharts-3)" zIndex="0"/><path fill="none" stroke="red" stroke-linecap="round" stroke-linejoin="round" stroke-width="2" d="M 9.285714285714286 54.375 L 27.85714285714286 22.5 L 46.42857142857143 7.5 L 65.00000000000001 45 L 83.57142857142858 18.75 L 102.14285714285715 45 L 120.71428571428574 57.9" clip-path="url(#highcharts-2)" zIndex="1"/><path fill="none" stroke="#08f" stroke-linecap="round" stroke-linejoin="round" stroke-width="2" d="M 9.285714285714286 54.375 L 27.85714285714286 22.5 L 46.42857142857143 7.5 L 65.00000000000001 45 L 83.57142857142858 18.75 L 102.14285714285715 45 L 120.71428571428574 57.9" clip-path="url(#highcharts-3)" zIndex="1"/><path fill="none" stroke="rgba(192,192,192,0.0001)" stroke-linejoin="round" stroke-width="22" d="M -0.7142857142857135 54.375 L 9.285714285714286 54.375 L 27.85714285714286 22.5 L 46.42857142857143 7.5 L 65.00000000000001 45 L 83.57142857142858 18.75 L 102.14285714285715 45 L 120.71428571428574 57.9 L 130.71428571428572 57.9" class="highcharts-tracker" visibility="visible" zIndex="2"/></g></g><g class="highcharts-tooltip" zIndex="8" style="cursor:default;padding:0;white-space:nowrap"><path fill="none" stroke="#000" stroke-width="5" d="M 3 0 L 13 0 C 16 0 16 0 16 3 L 16 13 C 16 16 16 16 13 16 L 3 16 C 0 16 0 16 0 13 L 0 3 C 0 0 0 0 3 0" isShadow="true" opacity=".05" transform="translate(0,-9999) translate(1, 1)"/><path fill="none" stroke="#000" stroke-width="3" d="M 3 0 L 13 0 C 16 0 16 0 16 3 L 16 13 C 16 16 16 16 13 16 L 3 16 C 0 16 0 16 0 13 L 0 3 C 0 0 0 0 3 0" isShadow="true" opacity=".1" transform="translate(0,-9999) translate(1, 1)"/><path fill="none" stroke="#000" stroke-width="1" d="M 3 0 L 13 0 C 16 0 16 0 16 3 L 16 13 C 16 16 16 16 13 16 L 3 16 C 0 16 0 16 0 13 L 0 3 C 0 0 0 0 3 0" isShadow="true" opacity=".15" transform="translate(0,-9999) translate(1, 1)"/><path fill="rgba(249, 249, 249, .85)" d="M 3 0 L 13 0 C 16 0 16 0 16 3 L 16 13 C 16 16 16 16 13 16 L 3 16 C 0 16 0 16 0 13 L 0 3 C 0 0 0 0 3 0" transform="translate(0,-9999)"/></g></svg>