<svg xmlns="http://www.w3.org/2000/svg" xmlns:xlink="http://www.w3.org/1999/xlink" width="150" version="1.1" style="font-family:&quot;Lucida Grande&quot;,&quot;Lucida Sans Unicode&quot;,Arial,Helvetica,sans-serif;font-size:12px" height="100"><desc>Created with Highstock 2.0.4-modified</desc><defs><clipPath id="highcharts-1"><rect width="130" height="75" x="0" y="0"/></clipPath></defs><rect width="150" height="100" x="0" y="0" fill="#FFF" class="highcharts-background" strokeWidth="0"/><g class="highcharts-grid" zIndex="1"><path fill="none" stroke="silver" stroke-width="1" d="M 10 9.5 L 140 9.5" opacity="1" zIndex="1"/><path fill="none" stroke="silver" stroke-width="1" d="M 10 29.5 L 140 29.5" opacity="1" zIndex="1"/><path fill="none" stroke="silver" stroke-width="1" d="M 10 48.5 L 140 48.5" opacity="1" zIndex="1"/><path fill="none" stroke="silver" stroke-width="1" d="M 10 66.5 L 140 66.5" opacity="1" zIndex="1"/><path fill="none" stroke="silver" stroke-width="1" d="M 10 85.5 L 140 85.5" opacity="1" zIndex="1"/></g><g class="highcharts-series-group" zIndex="3"><g class="highcharts-series" clip-path="url(#highcharts-1)" transform="translate(10,10) scale(1 1)" visibility="visible" zIndex=".1"><path fill="rgba(124,181,236,0.75)" d="M 1.2745098039215688 33.75 L 33.13725490196079 18.75 L 65 18.75 L 96.86274509803921 26.25 L 128.72549019607843 11.25 L 128.72549019607843 37.5 L 96.86274509803921 45 L 65 26.25 L 33.13725490196079 30 L 1.2745098039215688 56.25" zIndex="0"/><path fill="none" stroke="#7cb5ec" stroke-linecap="round" stroke-linejoin="round" stroke-width="1" d="M 1.2745098039215688 33.75 L 33.13725490196079 18.75 L 65 18.75 L 96.86274509803921 26.25 L 128.72549019607843 11.25 M 128.72549019607843 37.5 L 96.86274509803921 45 L 65 26.25 L 33.13725490196079 30 L 1.2745098039215688 56.25" zIndex="1"/><path fill="rgba(192,192,192,0.0001)" stroke="rgba(192,192,192,0.0001)" stroke-linejoin="round" stroke-width="1" d="M 1.2745098039215688 33.75 L 33.13725490196079 18.75 L 65 18.75 L 96.86274509803921 26.25 L 128.72549019607843 11.25 L 128.72549019607843 37.5 L 96.86274509803921 45 L 65 26.25 L 33.13725490196079 30 L 1.2745098039215688 56.25" class="highcharts-tracker" visibility="visible" zIndex="2"/></g><g class="highcharts-series" clip-path="url(#highcharts-1)" transform="translate(10,10) scale(1 1)" visibility="visible" zIndex=".1"><path fill="none" stroke="#434348" stroke-linecap="round" stroke-linejoin="round" stroke-width="2" d="M 1.2745098039215688 45 L 33.13725490196079 41.25 L 65 48.75 L 96.86274509803921 33.75 L 128.72549019607843 11.25" zIndex="1"/><path fill="none" stroke="rgba(192,192,192,0.0001)" stroke-linejoin="round" stroke-width="22" d="M -8.72549019607843 45 L 1.2745098039215688 45 L 33.13725490196079 41.25 L 65 48.75 L 96.86274509803921 33.75 L 128.72549019607843 11.25 L 138.72549019607843 11.25" class="highcharts-tracker" visibility="visible" zIndex="2"/></g></g><g class="highcharts-tooltip" zIndex="8" style="cursor:default;padding:0;white-space:nowrap"><path fill="none" stroke="#000" stroke-width="5" d="M 3 0 L 13 0 C 16 0 16 0 16 3 L 16 13 C 16 16 16 16 13 16 L 3 16 C 0 16 0 16 0 13 L 0 3 C 0 0 0 0 3 0" isShadow="true" opacity=".05" transform="translate(0,-9999) translate(1, 1)"/><path fill="none" stroke="#000" stroke-width="3" d="M 3 0 L 13 0 C 16 0 16 0 16 3 L 16 13 C 16 16 16 16 13 16 L 3 16 C 0 16 0 16 0 13 L 0 3 C 0 0 0 0 3 0" isShadow="true" opacity=".1" transform="translate(0,-9999) translate(1, 1)"/><path fill="none" stroke="#000" stroke-width="1" d="M 3 0 L 13 0 C 16 0 16 0 16 3 L 16 13 C 16 16 16 16 13 16 L 3 16 C 0 16 0 16 0 13 L 0 3 C 0 0 0 0 3 0" isShadow="true" opacity=".15" transform="translate(0,-9999) translate(1, 1)"/><path fill="rgba(249, 249, 249, .85)" d="M 3 0 L 13 0 C 16 0 16 0 16 3 L 16 13 C 16 16 16 16 13 16 L 3 16 C 0 16 0 16 0 13 L 0 3 C 0 0 0 0 3 0" transform="translate(0,-9999)"/></g></svg>